<svg width="128" height="128" viewBox="0 0 128 128" fill="none" xmlns="http://www.w3.org/2000/svg">
<path fill-rule="evenodd" clip-rule="evenodd" d="M39.2728 1.02723C38.9048 1.62423 39.4338 3.65623 40.4498 5.54223C41.9608 8.34923 42.0708 9.28723 41.0538 10.7072C37.1588 16.1462 37.0918 19.2262 40.7688 23.9422C42.1918 25.7672 43.0168 26.1442 43.8258 25.3382C44.6348 24.5312 44.4588 23.2402 43.1688 20.5352C41.7478 17.5552 41.6418 16.5042 42.6218 15.1382C46.0938 10.3042 46.2608 9.01823 44.0178 4.40123C41.8488 -0.0647678 40.5278 -1.00377 39.2728 1.02723ZM60.3678 0.873232C60.0518 1.38623 60.5698 3.43523 61.5198 5.42723C62.9098 8.34023 63.0088 9.38223 62.0298 10.7462C58.5578 15.5802 58.3908 16.8662 60.6338 21.4832C61.8248 23.9362 63.2698 25.9422 63.8438 25.9422C65.7228 25.9422 66.0378 23.0832 64.4148 20.7662C62.3288 17.7872 62.4098 16.2862 64.8258 13.2152C67.3708 9.97923 67.3508 7.52823 64.7438 3.31023C62.6268 -0.115768 61.4018 -0.797768 60.3678 0.873232ZM82.3678 0.873232C82.0518 1.38623 82.5698 3.43523 83.5198 5.42723C84.9098 8.34023 85.0088 9.38223 84.0298 10.7462C80.5578 15.5802 80.3908 16.8662 82.6338 21.4832C83.8248 23.9362 85.2698 25.9422 85.8438 25.9422C87.7228 25.9422 88.0378 23.0832 86.4148 20.7662C84.3288 17.7872 84.4098 16.2862 86.8258 13.2152C89.3708 9.97923 89.3508 7.52823 86.7438 3.31023C84.6268 -0.115768 83.4018 -0.797768 82.3678 0.873232ZM0.283777 27.1922C0.0207765 27.8802 -0.0772235 50.7172 0.0657765 77.9422L0.325777 127.442H4.82578H9.32578L9.59278 102.692L9.86078 77.9422H63.8258H117.791L118.059 102.692L118.326 127.442H122.826H127.326V76.9422V26.4422L121.424 26.1382C115.78 25.8462 115.354 25.9972 111.674 29.5912L107.826 33.3482L104.034 29.6452C101.158 26.8372 99.4158 25.9422 96.8258 25.9422C94.2358 25.9422 92.4938 26.8372 89.6178 29.6452L85.8258 33.3482L82.0338 29.6452C76.8298 24.5642 72.8218 24.5642 67.6178 29.6452L63.8258 33.3482L60.0338 29.6452C57.1578 26.8372 55.4158 25.9422 52.8258 25.9422C50.2358 25.9422 48.4938 26.8372 45.6178 29.6452L41.8258 33.3482L38.0338 29.6452C32.8298 24.5642 28.8218 24.5642 23.6178 29.6452L19.8258 33.3482L16.0338 29.6452C12.5518 26.2452 11.7718 25.9422 6.50178 25.9422C2.83278 25.9422 0.590777 26.3932 0.283777 27.1922ZM5.82578 76.9422C5.82578 107.609 5.47778 123.942 4.82578 123.942C4.17378 123.942 3.82578 107.609 3.82578 76.9422C3.82578 46.2752 4.17378 29.9422 4.82578 29.9422C5.47778 29.9422 5.82578 46.2752 5.82578 76.9422ZM15.5378 34.1502L19.8258 38.3582L24.1138 34.1502C26.7708 31.5422 29.3238 29.9422 30.8258 29.9422C32.3278 29.9422 34.8808 31.5422 37.5378 34.1502L41.8258 38.3582L46.1138 34.1502C48.7708 31.5422 51.3238 29.9422 52.8258 29.9422C54.3278 29.9422 56.8808 31.5422 59.5378 34.1502L63.8258 38.3582L68.1138 34.1502C70.7708 31.5422 73.3238 29.9422 74.8258 29.9422C76.3278 29.9422 78.8808 31.5422 81.5378 34.1502L85.8258 38.3582L90.1138 34.1502C95.6318 28.7342 98.0198 28.7342 103.538 34.1502L107.826 38.3582L112.114 34.1502C114.472 31.8362 116.722 29.9422 117.114 29.9422C117.506 29.9422 117.826 33.0922 117.826 36.9422V43.9422H63.8258H9.82578V36.9422C9.82578 33.0922 10.1458 29.9422 10.5378 29.9422C10.9298 29.9422 13.1798 31.8362 15.5378 34.1502ZM123.826 76.9422C123.826 107.609 123.478 123.942 122.826 123.942C122.174 123.942 121.826 107.609 121.826 76.9422C121.826 46.2752 122.174 29.9422 122.826 29.9422C123.478 29.9422 123.826 46.2752 123.826 76.9422ZM117.826 52.9422V57.9422H63.8258H9.82578V52.9422V47.9422H63.8258H117.826V52.9422ZM117.826 67.9422V73.9422H63.8258H9.82578V67.9422V61.9422H63.8258H117.826V67.9422ZM12.2718 67.0292C11.2418 68.6972 13.5588 70.6092 14.9388 69.2292C16.0928 68.0752 15.3708 65.9422 13.8258 65.9422C13.3408 65.9422 12.6418 66.4312 12.2718 67.0292ZM22.2718 67.0292C21.2418 68.6972 23.5588 70.6092 24.9388 69.2292C26.0928 68.0752 25.3708 65.9422 23.8258 65.9422C23.3408 65.9422 22.6418 66.4312 22.2718 67.0292ZM32.2718 67.0292C31.2418 68.6972 33.5588 70.6092 34.9388 69.2292C36.0928 68.0752 35.3708 65.9422 33.8258 65.9422C33.3408 65.9422 32.6418 66.4312 32.2718 67.0292ZM42.2718 67.0292C41.2418 68.6972 43.5588 70.6092 44.9388 69.2292C46.0928 68.0752 45.3708 65.9422 43.8258 65.9422C43.3408 65.9422 42.6418 66.4312 42.2718 67.0292ZM52.2718 67.0292C51.2418 68.6972 53.5588 70.6092 54.9388 69.2292C56.0928 68.0752 55.3708 65.9422 53.8258 65.9422C53.3408 65.9422 52.6418 66.4312 52.2718 67.0292ZM62.2718 67.0292C61.2418 68.6972 63.5588 70.6092 64.9388 69.2292C66.0928 68.0752 65.3708 65.9422 63.8258 65.9422C63.3408 65.9422 62.6418 66.4312 62.2718 67.0292ZM72.2718 67.0292C71.2418 68.6972 73.5588 70.6092 74.9388 69.2292C76.0928 68.0752 75.3708 65.9422 73.8258 65.9422C73.3408 65.9422 72.6418 66.4312 72.2718 67.0292ZM82.2718 67.0292C81.2418 68.6972 83.5588 70.6092 84.9388 69.2292C86.0928 68.0752 85.3708 65.9422 83.8258 65.9422C83.3408 65.9422 82.6418 66.4312 82.2718 67.0292ZM92.2718 67.0292C91.2418 68.6972 93.5588 70.6092 94.9388 69.2292C96.0928 68.0752 95.3708 65.9422 93.8258 65.9422C93.3408 65.9422 92.6418 66.4312 92.2718 67.0292ZM102.272 67.0292C101.242 68.6972 103.559 70.6092 104.939 69.2292C106.093 68.0752 105.371 65.9422 103.826 65.9422C103.341 65.9422 102.642 66.4312 102.272 67.0292ZM112.272 67.0292C111.242 68.6972 113.559 70.6092 114.939 69.2292C116.093 68.0752 115.371 65.9422 113.826 65.9422C113.341 65.9422 112.642 66.4312 112.272 67.0292Z" fill="black"/>
</svg>
