<svg width="120" height="120" viewBox="0 0 120 120" fill="none" xmlns="http://www.w3.org/2000/svg">
<path fill-rule="evenodd" clip-rule="evenodd" d="M0.286616 1.07073C0.0226161 1.76273 -0.0773839 28.6537 0.0646161 60.8287L0.324616 119.329H59.8246H119.325V59.8287V0.328728L60.0466 0.0707277C13.1556 -0.133272 0.667616 0.0757277 0.286616 1.07073ZM114.825 21.3287V37.8287H111.382C105.382 37.8287 104.825 39.7147 104.825 60.0517C104.825 76.4957 104.975 77.9787 106.825 79.8287C107.936 80.9397 110.158 81.8287 111.825 81.8287H114.825V98.3287V114.829H59.8246H4.82462V98.3287V81.8287L7.57462 81.8137C14.0086 81.7777 14.8246 79.1987 14.8246 58.8947C14.8246 43.1617 14.6686 41.6727 12.8246 39.8287C11.7136 38.7177 9.49162 37.8287 7.82462 37.8287H4.82462V21.3287V4.82873H59.8246H114.825V21.3287ZM13.0336 21.0377C13.2646 27.6117 13.6356 29.3287 14.8246 29.3287C15.9356 29.3287 16.4546 27.7727 16.8246 23.3287L17.3246 17.3287L23.3246 16.8287C27.7686 16.4587 29.3246 15.9397 29.3246 14.8287C29.3246 13.6397 27.6076 13.2687 21.0336 13.0377L12.7426 12.7467L13.0336 21.0377ZM90.2706 13.9157C89.1266 15.7667 91.1006 16.7017 96.8246 17.0217L102.325 17.3287L102.825 23.3287C103.195 27.7727 103.714 29.3287 104.825 29.3287C106.014 29.3287 106.385 27.6167 106.615 21.0787L106.906 12.8287H98.9236C94.2556 12.8287 90.6636 13.2797 90.2706 13.9157ZM24.0246 29.0287C23.3646 29.6887 22.8246 31.6877 22.8246 33.4717C22.8246 38.8267 25.3806 39.8287 39.0476 39.8287C49.4916 39.8287 51.0506 39.6027 52.8246 37.8287C55.2276 35.4257 55.3626 33.0427 53.2676 30.0517C51.7926 27.9447 51.0196 27.8287 38.4676 27.8287C29.5006 27.8287 24.8376 28.2157 24.0246 29.0287ZM66.4796 29.6577C64.2546 32.1167 64.3926 35.3967 66.8246 37.8287C68.5986 39.6027 70.1576 39.8287 80.6016 39.8287C89.6436 39.8287 92.8956 39.4667 94.6016 38.2717C96.9956 36.5957 97.5016 32.9627 95.7896 29.7627C94.8456 27.9997 93.5796 27.8287 81.4446 27.8287C69.8196 27.8287 67.9246 28.0607 66.4796 29.6577ZM49.5766 33.5787C49.8916 34.5277 47.3406 34.8287 38.9666 34.8287C28.8336 34.8287 25.7946 34.1917 27.5506 32.4367C28.8106 31.1767 49.1296 32.2297 49.5766 33.5787ZM91.8246 33.3287C91.8246 34.5707 89.9356 34.8287 80.8246 34.8287C70.7556 34.8287 68.6366 34.3497 70.4916 32.4957C70.8576 32.1287 75.8076 31.8287 81.4916 31.8287C90.0096 31.8287 91.8246 32.0917 91.8246 33.3287ZM9.59962 59.2547C9.80862 72.1257 9.56962 76.3737 8.59962 76.9887C5.05162 79.2407 4.82462 78.2057 4.82462 59.7587V41.6897L7.07462 42.0087C9.29362 42.3247 9.32862 42.5577 9.59962 59.2547ZM114.825 59.8287C114.825 70.0927 114.43 77.8287 113.907 77.8287C109.993 77.8287 109.825 77.0917 109.825 59.8887C109.825 50.6887 110.125 42.8617 110.492 42.4957C110.858 42.1287 111.983 41.8287 112.992 41.8287C114.702 41.8287 114.825 43.0407 114.825 59.8287ZM24.4796 46.6577C22.1626 49.2177 22.3236 54.4907 24.7586 55.7937C25.8226 56.3627 32.3226 56.8287 39.2026 56.8287C50.9946 56.8287 51.8006 56.7017 53.2676 54.6057C55.3626 51.6147 55.2276 49.2317 52.8246 46.8287C51.0406 45.0447 49.4916 44.8287 38.4796 44.8287C27.7896 44.8287 25.9126 45.0737 24.4796 46.6577ZM66.8246 46.8287C64.3286 49.3247 64.2536 53.0017 66.6536 55.1737C68.1516 56.5297 70.7606 56.8287 81.0816 56.8287C94.9656 56.8287 96.8246 56.1297 96.8246 50.9127C96.8246 45.7227 94.4986 44.8287 80.9956 44.8287C70.1576 44.8287 68.6056 45.0477 66.8246 46.8287ZM49.5776 51.0787C49.1316 52.4237 33.2596 53.4007 29.0336 52.3437C23.8396 51.0437 28.6376 49.8287 38.9666 49.8287C47.3406 49.8287 49.8916 50.1297 49.5776 51.0787ZM91.5746 51.0787C90.9846 52.8497 70.6646 52.8497 70.0746 51.0787C69.7576 50.1287 72.3356 49.8287 80.8246 49.8287C89.3136 49.8287 91.8916 50.1287 91.5746 51.0787ZM24.0246 64.0287C23.3646 64.6887 22.8246 66.6877 22.8246 68.4717C22.8246 73.8267 25.3806 74.8287 39.0476 74.8287C49.4916 74.8287 51.0506 74.6027 52.8246 72.8287C55.2276 70.4257 55.3626 68.0427 53.2676 65.0517C51.7926 62.9447 51.0196 62.8287 38.4676 62.8287C29.5006 62.8287 24.8376 63.2157 24.0246 64.0287ZM66.4796 64.6577C64.2546 67.1167 64.3926 70.3967 66.8246 72.8287C68.5986 74.6027 70.1576 74.8287 80.6016 74.8287C89.6436 74.8287 92.8956 74.4667 94.6016 73.2717C96.9956 71.5957 97.5016 67.9627 95.7896 64.7627C94.8456 62.9997 93.5796 62.8287 81.4446 62.8287C69.8196 62.8287 67.9246 63.0607 66.4796 64.6577ZM49.5766 68.5787C49.8916 69.5277 47.3406 69.8287 38.9666 69.8287C28.8336 69.8287 25.7946 69.1917 27.5506 67.4367C28.8106 66.1767 49.1296 67.2297 49.5766 68.5787ZM91.8246 68.3287C91.8246 69.5707 89.9356 69.8287 80.8246 69.8287C70.7556 69.8287 68.6366 69.3497 70.4916 67.4957C70.8576 67.1287 75.8076 66.8287 81.4916 66.8287C90.0096 66.8287 91.8246 67.0917 91.8246 68.3287ZM24.4796 81.6577C22.1626 84.2177 22.3236 89.4907 24.7586 90.7937C25.8226 91.3627 32.3226 91.8287 39.2026 91.8287C50.9946 91.8287 51.8006 91.7017 53.2676 89.6057C55.3626 86.6147 55.2276 84.2317 52.8246 81.8287C51.0406 80.0447 49.4916 79.8287 38.4796 79.8287C27.7896 79.8287 25.9126 80.0737 24.4796 81.6577ZM66.8246 81.8287C64.3286 84.3247 64.2536 88.0017 66.6536 90.1737C68.1516 91.5297 70.7606 91.8287 81.0816 91.8287C94.9656 91.8287 96.8246 91.1297 96.8246 85.9127C96.8246 80.7227 94.4986 79.8287 80.9956 79.8287C70.1576 79.8287 68.6056 80.0477 66.8246 81.8287ZM49.5776 86.0787C49.1316 87.4237 33.2596 88.4007 29.0336 87.3437C23.8396 86.0437 28.6376 84.8287 38.9666 84.8287C47.3406 84.8287 49.8916 85.1297 49.5776 86.0787ZM91.5746 86.0787C91.2776 86.9707 88.2026 87.3287 80.8246 87.3287C73.4466 87.3287 70.3716 86.9707 70.0746 86.0787C69.7576 85.1287 72.3356 84.8287 80.8246 84.8287C89.3136 84.8287 91.8916 85.1287 91.5746 86.0787ZM13.5126 90.4747C13.1336 90.8527 12.8246 94.7057 12.8246 99.0357V106.91L21.0746 106.619C27.6126 106.389 29.3246 106.018 29.3246 104.829C29.3246 103.718 27.7686 103.199 23.3246 102.829L17.3246 102.329L16.8246 96.4067C16.3616 90.9177 15.1816 88.8047 13.5126 90.4747ZM103.355 90.9957C103.096 91.7287 102.758 94.5787 102.605 97.3287L102.325 102.329L96.3246 102.829C91.8806 103.199 90.3246 103.718 90.3246 104.829C90.3246 106.018 92.0416 106.389 98.6156 106.62L106.907 106.911L106.616 98.7007C106.423 93.2407 105.906 90.3507 105.076 90.0757C104.388 89.8487 103.614 90.2627 103.355 90.9957Z" fill="black"/>
</svg>
