<svg width="85" height="128" viewBox="0 0 85 128" fill="none" xmlns="http://www.w3.org/2000/svg">
<path fill-rule="evenodd" clip-rule="evenodd" d="M22.021 0.981897C12.954 2.0319 4.121 4.4809 1.75 6.6019C-0.649 8.7479 -0.509 13.5219 2 15.0889C3.812 16.2209 4 17.4209 4 27.8569C4 38.2929 3.812 39.4929 2 40.6249C0.052 41.8419 0 42.9569 0 83.6649C0 114.837 0.305 125.762 1.2 126.657C2.912 128.369 8.573 128.141 10.429 126.286C11.293 125.421 12 123.621 12 122.286V119.857H42H72V122.657C72 126.322 73.662 127.857 77.629 127.857C84.179 127.857 84 129.109 84 83.2939C84 42.9569 83.948 41.8409 82 40.6249C80.188 39.4929 80 38.2929 80 27.8389C80 17.5389 80.215 16.1179 82 14.5889C86.464 10.7669 83.296 5.8589 74.789 3.4169C63.295 0.117897 39.122 -0.998103 22.021 0.981897ZM62.678 4.9039C72.613 6.2339 80 8.5939 80 10.4369C80 11.6389 74.155 11.8569 42 11.8569C10.067 11.8569 4 11.6329 4 10.4549C4 5.5079 41.024 2.0049 62.678 4.9039ZM12 27.8569C12 39.1899 11.889 39.8569 10 39.8569C8.111 39.8569 8 39.1899 8 27.8569C8 16.5239 8.111 15.8569 10 15.8569C11.889 15.8569 12 16.5239 12 27.8569ZM68 27.8569V39.8569H42H16V27.8569V15.8569H42H68V27.8569ZM76 27.8569C76 39.1899 75.889 39.8569 74 39.8569C72.111 39.8569 72 39.1899 72 27.8569C72 16.5239 72.111 15.8569 74 15.8569C75.889 15.8569 76 16.5239 76 27.8569ZM80 79.8569V115.857H42H4V79.8569V43.8569H42H80V79.8569ZM8.461 49.0969C8.191 49.8019 8.089 64.0979 8.235 80.8669L8.5 111.357H42H75.5V79.8569V48.3569H72.083C68.229 48.3569 66.628 50.6849 69.895 51.5399C71.972 52.0829 72 52.4659 72 79.9739V107.857H42H12V79.8779V51.8989L31.75 51.6279C48.518 51.3979 51.5 51.1309 51.5 49.8569C51.5 48.5789 48.35 48.3169 30.226 48.0869C13.663 47.8769 8.844 48.1009 8.461 49.0969ZM56.481 48.8879C55.388 50.6569 57.451 52.0479 60.628 51.6849C64.648 51.2259 64.431 48.4469 60.344 48.0509C58.608 47.8819 56.87 48.2589 56.481 48.8879ZM8 121.857C8 123.19 7.333 123.857 6 123.857C4.667 123.857 4 123.19 4 121.857C4 120.524 4.667 119.857 6 119.857C7.333 119.857 8 120.524 8 121.857ZM80 121.857C80 123.19 79.333 123.857 78 123.857C76.667 123.857 76 123.19 76 121.857C76 120.524 76.667 119.857 78 119.857C79.333 119.857 80 120.524 80 121.857Z" fill="black"/>
</svg>
