<svg width="128" height="76" viewBox="0 0 128 76" fill="none" xmlns="http://www.w3.org/2000/svg">
<path fill-rule="evenodd" clip-rule="evenodd" d="M6.54686 1.73889C5.04786 2.95289 4.26986 4.66189 4.26986 6.73889C4.26986 9.15189 3.83086 9.89489 2.40486 9.89489C-0.35414 9.89489 -0.74614 12.1759 1.26486 16.5279C2.24686 18.6549 3.28786 23.0949 3.57686 26.3949C3.96586 30.8279 4.49486 32.3949 5.60286 32.3949C6.74486 32.3949 7.17386 30.9019 7.40086 26.1449C7.69486 19.9569 7.72786 19.8949 10.6509 19.8949H13.6029V45.8949V71.8949H10.6269H7.64986L7.37686 54.6449C7.14586 40.0999 6.86786 37.3949 5.60286 37.3949C4.32186 37.3949 4.10286 40.1729 4.10286 56.3949V75.3949L63.3319 75.6529L122.561 75.9109L123.115 73.6529C123.42 72.4109 123.542 62.1699 123.386 50.8949C123.145 33.4649 122.878 30.3949 121.603 30.3949C120.327 30.3949 120.063 33.4869 119.833 51.1449L119.562 71.8949H116.066H112.569L112.836 46.1449L113.103 20.3949L116.353 20.0819C119.396 19.7879 119.603 19.9689 119.603 22.9049C119.603 25.3459 119.989 25.9669 121.342 25.7069C122.298 25.5229 123.229 24.4769 123.411 23.3839C123.592 22.2899 124.638 19.4289 125.733 17.0259C127.973 12.1129 127.631 9.89489 124.634 9.89489C123.075 9.89489 122.603 9.24289 122.603 7.08589C122.603 3.49189 120.814 1.17589 117.403 0.353889C114.034 -0.458111 109.603 3.51489 109.603 7.34989C109.603 9.20289 109.075 9.89489 107.662 9.89489C106.594 9.89489 105.419 10.3839 105.049 10.9819C104.281 12.2249 107.47 19.8949 108.755 19.8949C109.221 19.8949 109.603 21.2449 109.603 22.8949C109.603 25.5019 109.243 25.8939 106.853 25.8889C101.357 25.8779 96.4979 23.7009 90.8599 18.7209C84.3949 13.0109 78.5639 9.94989 74.0939 9.91689C72.1839 9.90289 70.6279 9.16389 69.8349 7.89489C68.0609 5.05389 59.6739 5.05389 57.1029 7.89489C56.1079 8.99489 54.1249 9.90489 52.6979 9.91689C48.5239 9.95189 42.2709 13.3089 36.2899 18.7259C30.8339 23.6669 25.9149 25.8779 20.3529 25.8889C18.0979 25.8939 17.6029 25.4529 17.6029 23.4389C17.6029 22.0889 18.7439 19.3019 20.1389 17.2469C23.1879 12.7539 22.9839 10.4999 19.4929 10.0929C17.3539 9.84389 16.9799 9.37289 17.3569 7.40289C17.6709 5.75989 17.0139 4.21489 15.2539 2.45489C12.2249 -0.574111 9.66386 -0.785111 6.54686 1.73889ZM13.1029 6.89489C13.1029 8.72789 12.5009 9.47989 10.8489 9.71489C9.49586 9.90689 8.35286 9.40689 7.99186 8.46489C6.99586 5.86989 8.39086 3.72589 10.8489 4.07489C12.5009 4.30989 13.1029 5.06189 13.1029 6.89489ZM119.1 5.88589C119.916 8.45689 118.988 9.89489 116.513 9.89489C114.323 9.89489 113.08 7.69989 113.965 5.39489C114.801 3.21489 118.36 3.55589 119.1 5.88589ZM61.8109 17.6449C62.0409 23.7369 62.4239 25.3949 63.6029 25.3949C64.7819 25.3949 65.1649 23.7369 65.3949 17.6449C65.5559 13.3819 66.1179 9.89489 66.6449 9.89489C67.2349 9.89489 67.6029 21.8029 67.6029 40.8949C67.6029 60.4669 67.2419 71.8949 66.6229 71.8949C66.0239 71.8949 65.5389 63.8409 65.3729 51.1449C65.1429 33.4869 64.8789 30.3949 63.6029 30.3949C62.3269 30.3949 62.0629 33.4869 61.8329 51.1449C61.6669 63.8409 61.1819 71.8949 60.5829 71.8949C59.9639 71.8949 59.6029 60.4669 59.6029 40.8949C59.6029 21.8029 59.9709 9.89489 60.5609 9.89489C61.0879 9.89489 61.6499 13.3819 61.8109 17.6449ZM56.3709 36.6579L56.6399 59.8949H53.1209H49.6029V36.9679C49.6029 15.9779 49.7509 14.0019 51.3529 13.5739C56.1589 12.2889 56.0859 11.9549 56.3709 36.6579ZM76.3529 13.8809C77.3159 13.8919 77.6029 19.1689 77.6029 36.8949V59.8949H74.1029H70.6029V36.2779V12.6619L72.8529 13.2649C74.0899 13.5959 75.6659 13.8739 76.3529 13.8809ZM17.3569 15.1449C17.1029 15.9149 14.6209 16.5079 10.8979 16.6889C6.17786 16.9189 4.72086 16.6449 4.25786 15.4389C3.75886 14.1369 4.76986 13.8949 10.7179 13.8949C15.9129 13.8949 17.6609 14.2239 17.3569 15.1449ZM122.353 15.1449C122.083 15.9549 119.881 16.3949 116.103 16.3949C112.325 16.3949 110.123 15.9549 109.853 15.1449C109.547 14.2279 111.214 13.8949 116.103 13.8949C120.992 13.8949 122.659 14.2279 122.353 15.1449ZM45.6029 37.8949V59.8949H42.1029H38.6029V40.4669V21.0399L41.8529 18.4789C43.6409 17.0699 45.2149 15.9119 45.3529 15.9059C45.4909 15.8999 45.6029 25.7949 45.6029 37.8949ZM88.6029 40.6449V59.8949H85.1029H81.6029V37.8519V15.8099L85.1029 18.6019L88.6029 21.3949V40.6449ZM35.6029 42.9539V59.8949H31.6029H27.6029L27.6249 44.1449L27.6459 28.3949L30.8749 26.8489C32.6499 25.9989 34.4399 25.4629 34.8529 25.6579C35.2659 25.8529 35.6029 33.6359 35.6029 42.9539ZM99.6029 44.4149V59.8949H95.6029H91.6029V42.3749V24.8539L95.6029 26.8949L99.6029 28.9359V44.4149ZM24.6029 44.9539V59.8949H21.1029H17.6029V44.9609V30.0279L20.3529 29.6759C21.8649 29.4819 23.4399 29.4789 23.8529 29.6679C24.2659 29.8579 24.6029 36.7359 24.6029 44.9539ZM107.685 29.8949C109.49 29.8949 109.603 30.7749 109.603 44.8949V59.8949H106.103H102.603V44.2879C102.603 30.4669 102.784 28.7499 104.185 29.2879C105.055 29.6219 106.63 29.8949 107.685 29.8949ZM56.6029 67.8949V71.8949H37.1029H17.6029V67.8949V63.8949H37.1029H56.6029V67.8949ZM109.603 67.8949V71.8949H90.1029H70.6029V67.8949V63.8949H90.1029H109.603V67.8949Z" fill="black"/>
</svg>
