<svg width="44" height="128" viewBox="0 0 44 128" fill="none" xmlns="http://www.w3.org/2000/svg">
<path fill-rule="evenodd" clip-rule="evenodd" d="M20.3091 1.18209C19.2641 2.54309 -0.037944 76.4651 5.60336e-05 78.9591C0.013056 79.7991 3.22206 83.6241 7.13106 87.4591L14.2381 94.4321L13.6641 110.015C13.2511 121.235 13.4171 125.925 14.2571 126.765C15.8661 128.374 28.6751 128.305 29.6801 126.682C30.1051 125.995 30.3261 118.457 30.1711 109.932L29.8881 94.4321L36.9561 87.4591C43.8331 80.6741 45.0821 78.1521 43.1101 75.0361C41.9421 73.1921 39.0241 74.3751 39.0241 76.6921C39.0241 77.6951 37.0481 80.4541 34.6341 82.8241L30.2441 87.1331L29.5351 81.0271C28.9711 76.1691 28.3091 74.5141 26.2901 72.9271C22.9921 70.3321 20.7451 70.4081 17.4691 73.2251C15.3691 75.0321 14.6681 76.7391 14.1641 81.2751L13.5241 87.0321L9.12306 82.5411L4.72306 78.0501L7.59706 66.9961L10.4721 55.9421L15.5291 60.9371C18.3111 63.6841 21.2651 65.9321 22.0931 65.9321C22.9211 65.9321 25.7631 63.7351 28.4071 61.0511C31.6081 57.8011 33.8141 56.3261 35.0071 56.6381C35.9921 56.8951 37.0931 56.6301 37.4521 56.0481C38.1001 55.0001 25.6151 5.05109 23.8641 1.68209C22.7901 -0.381908 21.6351 -0.543908 20.3091 1.18209ZM25.8101 26.6321L29.0961 39.3271L25.5601 42.8631L22.0241 46.3991L18.4721 42.8471L14.9201 39.2951L18.0961 26.6131C19.8421 19.6391 21.5531 13.9331 21.8981 13.9341C22.2421 13.9361 24.0031 19.6491 25.8101 26.6321ZM18.0671 48.5901L22.1161 52.2481L26.0521 48.4051C30.3311 44.2261 30.4521 44.2171 31.3561 47.9971C31.8671 50.1341 31.1381 51.3801 26.9841 55.4721L21.9981 60.3821L16.9481 55.3321C12.6261 51.0101 11.9951 49.8971 12.5691 47.6071C12.9391 46.1361 13.4161 44.9321 13.6301 44.9321C13.8431 44.9321 15.8401 46.5781 18.0671 48.5901ZM36.3601 64.4991C36.0291 65.3611 36.2711 66.5791 36.8981 67.2061C38.3061 68.6141 41.6401 65.7381 40.5831 64.0281C39.5851 62.4131 37.0521 62.6961 36.3601 64.4991ZM23.8241 77.1321C24.6651 77.9731 25.0241 83.5241 25.0241 95.6951V113.059L21.7981 112.745L18.5731 112.432L18.8901 95.4321C19.2341 77.0871 20.1991 73.5071 23.8241 77.1321ZM26.0241 120.432C26.0241 122.682 25.6241 122.932 22.0241 122.932C18.4241 122.932 18.0241 122.682 18.0241 120.432C18.0241 118.182 18.4241 117.932 22.0241 117.932C25.6241 117.932 26.0241 118.182 26.0241 120.432Z" fill="black"/>
</svg>
