<svg xmlns="http://www.w3.org/2000/svg" width="141" height="45"><path fill-rule="evenodd" fill="#FFF" d="M138.087 7.527c.481.096.481.483.481.676 0 .386 0 .483.145.628h-.818c-.144-.193-.096-.29-.144-.724-.049-.339-.433-.339-.529-.339h-.626l-.048 1.063h-.769V6.029h1.731c.337 0 1.154.049 1.154.773a.699.699 0 01-.577.725zm-.817-.966h-.722v.724h.722c.481 0 .529-.193.529-.338 0-.29-.193-.386-.529-.386z"/><path fill-rule="evenodd" fill="#FFF" d="M137.173 10.57a3.076 3.076 0 01-3.078-3.092c0-1.69 1.395-3.091 3.078-3.091 1.684 0 3.078 1.401 3.078 3.091 0 1.691-1.394 3.092-3.078 3.092zm0-5.7a2.592 2.592 0 00-2.597 2.608 2.593 2.593 0 002.597 2.609 2.593 2.593 0 002.598-2.609 2.592 2.592 0 00-2.598-2.608zM16.362 21.051c-.914 0-1.25-.386-2.116-1.014l-1.491 2.512v6.183h1.731v1.159H7.898v-1.159h1.731V18.588c0-1.111 0-2.222.048-4.202.721-2.415 2.597-4.251 4.954-4.251 3.078 0 5.194 2.125 5.194 5.555 0 2.705-1.251 5.361-3.463 5.361zm-1.828-9.708c-1.875 0-1.683 3.719-1.683 5.796v3.719l1.299-2.222c.192.242.577.484.769.484.529 0 1.347-.58 1.347-3.478 0-1.933-.193-4.299-1.732-4.299zm12.12 18.307v-1.208h1.539l-1.539-7.149c-.625 4.202-2.645 8.743-4.857 8.743-1.299 0-2.309-1.111-2.309-3.333 0-2.995 1.539-6.569 2.934-9.467 1.154-2.464 2.308-3.72 2.02-6.183h-1.587V9.894h6.396v1.159h-1.635l3.799 17.437h.962v1.16h-5.723zm-1.539-15.361c-1.298 2.367-3.174 6.424-3.415 9.371v.724c.049.629.337 1.353 1.155 1.353 1.587 0 2.933-4.444 3.174-7.052l-.914-4.396zm21.354 18.307c-.096.87-.145 2.319-.77 2.319-.481 0-.577-.676-.625-1.208-.385-3.574-1.972-3.719-3.511-3.719h-2.116c-1.395 0-3.078-.242-3.751 2.27-.289 1.063-.337 2.657-1.01 2.657-.481 0-.529-.822-.577-1.305-.289-3.188-.818-3.188-.818-4.347 0-.724.577-.821.818-.821.336 0 .433.097.721.097.529 0 .625-.677.673-1.063.193-1.159.193-4.009 2.068-8.84.914-2.367 1.828-3.912 1.828-5.699 0-.483-.144-1.256-1.202-1.256H37.09v-1.159h6.782v1.159h-1.155c.289 4.685 2.068 17.051 2.934 17.051.289 0 .625-.338.962-.338.289 0 .577.386.577.966 0 .579-.433 1.255-.721 3.236zm-6.541-16.327c-1.731 3.044-3.174 8.309-3.174 10.724 0 1.642.577 1.787 1.731 1.787h3.559c-1.683-8.501-1.346-7.245-2.116-12.511zm15.005-4.54V10.57h-6.589v1.159h1.684V28.78h-1.684v1.159h6.589V28.78H53.25V11.729h1.683zm17.218 18.21h5.482V28.78h-1.442l-2.742-17.051h1.347V10.57h-5.531v1.159h.914l.048.483c.096 2.608-1.683 5.024-3.174 7.922-.096.193-.241.435-.337.628l-1.443-9.033h1.155V10.57H60.56v1.159h1.539c.337 2.753-1.539 5.313-3.126 8.405-1.298 2.463-2.212 4.685-2.212 8.066 0 2.319.577 2.029 1.154 1.933.433-.049.77-.097 1.202 0 .433.096.818.241 1.203 0 .24-.145.288-.338.288-.58.048-.483 0-.966 0-1.401-.096-1.739-.288-3.043-.288-4.588 0-3.285.962-5.99 2.356-8.84l2.261 14.346c.144 1.401.625 1.207 1.106 1.111.433-.048.769-.097 1.202 0 .433.096.818.241 1.202 0 .241-.145.289-.338.289-.58.048-.483 0-.966 0-1.401-.096-1.738-.289-3.043-.289-4.588 0-3.285.962-5.99 2.357-8.84l.048-.048 2.261 14.104h-.914v1.111h-.048zm13.466 0h-.096V28.78h1.587l-1.539-7.197c-.625 4.202-2.645 8.743-4.858 8.743-1.298 0-2.308-1.111-2.308-3.333 0-2.995 1.539-6.569 2.934-9.467 1.154-2.464 2.308-3.72 2.02-6.183h-1.588v-1.16h6.397v1.16h-1.635L90.33 28.78h1.443v1.159h-6.156zm-1.491-15.36c-1.25 2.367-3.174 6.424-3.415 9.371v.725c.049.627.337 1.352 1.155 1.352 1.539 0 2.885-4.492 3.174-7.052l-.914-4.396zm29.626 2.85h5.386v-1.16h-.865c-.289-2.366-1.491-6.086-5.675-6.086-3.752 0-6.301 3.671-6.301 8.599 0 1.352.096 2.946 1.539 5.554.818 1.449 1.924 2.947 1.972 5.121v.772c.385.242.721.338 1.491.338 2.645 0 6.781-2.898 6.974-8.211h.865v-1.159h-5.386v1.159h.865c.289 4.106-1.875 7.487-3.27 7.487-.24 0-.385-.048-.481-.145.144-.628.241-.918.241-1.546 0-1.014-.145-2.173-.433-4.009-.433-2.27-.722-4.347-.722-6.811 0-4.492 1.203-5.941 2.453-5.941.866 0 2.309.58 2.212 4.927h-.865v1.111zm-11.35 12.172c0 .242.048.387.288.58.385.241.77.096 1.203 0 .432-.097.769-.048 1.202 0 .577.096 1.395.338 1.154-1.884-.337-2.802-.625-3.768-1.154-5.168-1.058-2.609-3.319-3.72-6.156-3.913 1.347-3.526 2.02-5.41 3.27-5.41.722 0 1.01.29 1.78.676h.433c-.049-1.738.144-2.173.577-3.815-.433-.29-1.106-.484-1.828-.484-2.789 0-4.136 6.183-4.857 8.164l-.289.773h-.769v-7.391h1.442V10.57h-6.3v1.159h1.732V28.78h-1.299v1.159h5.771V28.78h-1.298v-8.694l.096-.049c3.078 0 5.338.58 5.338 3.72 0 1.497-.192 2.801-.288 4.492-.096.435-.096.869-.048 1.352zM8.138 42.063c0 .387-.048.725-.192.918-.048.049-.193.145-.289.145l.096.483a.96.96 0 00.529-.145c.385-.241.481-.772.481-1.449v-.627h.577v2.173h.578v-2.657h-1.78v1.159zm5.771-.096c-.144.29-.336.628-.481.966.048-.338.048-.773.048-1.208v-.773h-.529v2.609h.674l.529-.966c.144-.29.336-.628.433-.966-.049.338-.049.724-.049 1.111v.821h.578v-2.657h-.626l-.577 1.063zm3.992-.531h.673v2.125h.626v-2.125h.721v-.532h-2.02v.532zm5.387 1.014h.961v-.483h-.961v-.579h1.058v-.484H22.71v2.657h1.684v-.483h-1.106v-.628zm4.953-.483c-.144.29-.336.628-.481.966.048-.338.048-.773.048-1.208v-.773h-.529v2.609h.674l.529-.966c.144-.29.336-.628.433-.966-.048.338-.048.724-.048 1.111v.821h.528v-2.657h-.625l-.529 1.063zm.096-1.159c.337 0 .578-.145.578-.483h-.385c0 .145-.048.241-.193.241-.144 0-.192-.096-.192-.241h-.433c.096.289.289.483.625.483zm5.675 1.111h-1.009v-1.015h-.578v2.657h.578V42.45h1.009v1.111h.578v-2.657h-.578v1.015zm4.714 1.69c-.77 0-1.251-.579-1.251-1.352 0-.821.529-1.401 1.299-1.401.769 0 1.25.628 1.25 1.352 0 .87-.529 1.401-1.298 1.401zm0-2.27c-.385 0-.626.386-.626.918 0 .483.241.869.626.869.433 0 .673-.386.625-.918 0-.483-.192-.869-.625-.869zm3.992 1.014h1.009v.387h-1.009v-.387zm5.819-1.449l-.289.87a5.639 5.639 0 00-.24.966c-.048-.339-.145-.628-.241-.966l-.24-.87h-.818l-.192 2.657h.577l.048-1.015c0-.338.048-.724.048-1.11.048.338.144.724.241 1.062l.288 1.014h.481l.337-1.062c.096-.29.192-.676.288-1.014 0 .386 0 .772.048 1.11l.048 1.015h.578l-.145-2.657h-.817zm4.424 1.546h.962v-.483h-.962v-.579h1.058v-.484h-1.683v2.657h1.732v-.483h-1.107v-.628zm6.012-1.546H58.3l-.241.484c-.048.144-.096.289-.192.434-.048-.145-.144-.29-.192-.434l-.241-.484h-.673l.721 1.304-.769 1.353h.673l.241-.483c.096-.193.144-.338.192-.483.096.145.144.29.24.483l.241.483h.673l-.769-1.353.769-1.304zm4.377 2.657l-.193-.676h-.769l-.193.676h-.625l.818-2.657h.769l.818 2.657h-.625zm-.433-1.691a7.395 7.395 0 00-.145-.531c-.048.193-.096.386-.144.531l-.144.58h.577l-.144-.58zm5.482.049h-.961v-1.015h-.626v2.657h.626V42.45h.961v1.111h.626v-2.657h-.626v1.015zm4.617.048c-.144.29-.336.628-.48.966.048-.338.048-.773.048-1.208v-.773h-.529v2.609h.673l.529-.966c.144-.29.337-.628.433-.966-.048.338-.048.724-.048 1.111v.821h.529v-2.657h-.626l-.529 1.063zm5.531.048a.905.905 0 01-.385.097c-.288 0-.432-.145-.432-.435v-.773h-.577v.87c0 .579.336.821.817.821.241 0 .385-.049.577-.145v1.111h.577v-2.657h-.577v1.111zm4.184.435h.962v-.483h-.962v-.579h1.01v-.484h-1.635v2.657h1.683v-.483h-1.058v-.628zm5.291-1.062c.192 0 .384.048.481.096l.144-.483c-.096-.049-.337-.097-.673-.097-.818 0-1.443.484-1.443 1.401 0 .773.481 1.352 1.394 1.352.337 0 .578-.048.674-.096l-.096-.483a1.431 1.431 0 01-.481.096c-.529 0-.866-.337-.866-.869 0-.628.385-.917.866-.917zm4.809-.484l-.721 1.111h-.048v-1.111h-.578v2.657h.578V42.45h.096c.336 0 .433.242.529.531.048.193.096.387.192.58h.625c-.144-.242-.192-.531-.288-.821-.096-.339-.241-.58-.625-.628l.913-1.16-.673-.048zm4.473 1.063c-.145.29-.337.628-.481.966.048-.338.048-.773.048-1.208v-.773h-.529v2.609h.673l.529-.966c.145-.29.337-.628.433-.966-.048.338-.048.724-.048 1.111v.821h.529v-2.657h-.625l-.529 1.063zm5.242-1.159c.337 0 .577-.145.577-.483h-.385c0 .145-.048.241-.192.241-.144 0-.192-.096-.192-.241h-.433c.096.289.288.483.625.483zm-.048 1.159c-.144.29-.337.628-.481.966.048-.338.048-.773.048-1.208v-.773h-.529v2.609h.673l.529-.966c.145-.29.337-.628.433-.966-.048.338-.048.724-.048 1.111v.821h.529v-2.657h-.625l-.529 1.063zm8.512.241c.289-.096.53-.289.53-.627 0-.387-.337-.677-.914-.677-.385 0-.625.097-.818.193l.144.435c.145-.096.385-.144.577-.144.241 0 .385.096.385.289 0 .193-.192.338-.481.338h-.24v.435h.24c.241 0 .577.048.577.338 0 .242-.192.338-.481.338-.24 0-.528-.096-.625-.145l-.144.483c.241.145.529.193.818.193.481 0 1.106-.193 1.106-.82-.048-.387-.337-.58-.674-.629zm5.05 1.353l-.192-.676h-.77l-.192.676h-.625l.817-2.657h.77l.817 2.657h-.625zm-.433-1.691c-.048-.193-.096-.386-.144-.531-.048.193-.096.386-.144.531l-.144.58h.577l-.145-.58zm5.339.29c.288.048.529.29.577.628 0 .242-.144.435-.289.58-.192.144-.529.241-1.058.241-.336 0-.529-.048-.673-.048v-2.609c.144 0 .481-.048.77-.048.336 0 .577.048.769.145.192.097.337.29.337.532a.608.608 0 01-.433.579zm-.625-.821h-.241v.628h.193c.288 0 .48-.145.48-.338 0-.193-.144-.29-.432-.29zm-.048 1.062h-.193v.773h.241c.24 0 .48-.096.48-.386 0-.29-.24-.387-.528-.387zm5.145 1.208c-.769 0-1.25-.579-1.25-1.352 0-.821.529-1.401 1.299-1.401.817 0 1.25.628 1.25 1.352 0 .87-.529 1.401-1.299 1.401zm.049-2.27c-.385 0-.626.386-.626.918 0 .483.241.869.626.869.384 0 .625-.386.625-.918 0-.483-.193-.869-.625-.869zm6.444 2.898h-.481l-.048-.676h-1.539l-.048.676h-.481l-.048-1.159h.241c.096-.193.192-.386.24-.58a4.35 4.35 0 00.096-.869v-.725h1.732l.144 2.174h.24l-.048 1.159zm-.914-2.801h-.577v.338c0 .289 0 .579-.096.869-.048.145-.144.29-.192.435h.865v-1.642zm-10.388-12.414l6.589 2.946c.385.193.866 0 1.058-.386l.289-.58.481.242c.721.338 1.539 0 1.875-.725l3.944-8.888 2.212-.724.674-1.546-9.715-4.347v1.497c-.048.387 0 1.208.192 1.594.144.29.721.58 1.154.725h.048a3.482 3.482 0 012.357 3.284 3.456 3.456 0 01-3.463 3.478 3.456 3.456 0 01-3.463-3.478c0-.531.145-1.063.337-1.545-.337-.29-.818-.676-1.154-1.305-.433-.821-.529-2.125-.529-2.946l-3.992 8.984c-.337.725 0 1.546.721 1.884l.241.097-.289.579c-.144.484.048.966.433 1.16zm-76.998 6.666h-7.07a.638.638 0 00-.625.627c0 .339.289.628.625.628h7.07a.637.637 0 00.625-.628.607.607 0 00-.625-.627z"/><path fill-rule="evenodd" fill="#FFF" d="M137.462 17.091c-.337-.145-.673 0-.818.338-.144.338 0 .676.337.821 2.212.966 2.405 1.401 2.405 2.512v12.897a2.057 2.057 0 01-2.068 2.077H47.912a.639.639 0 00-.626.628c0 .338.289.628.626.628h89.406c1.827 0 3.318-1.497 3.318-3.333V20.762c0-1.932-.962-2.657-3.174-3.671z"/><path fill-rule="evenodd" fill="#FFF" d="M132.316 7.334c-.048.289-.096.869-.433.869-.433 0-.481-1.111-.673-1.836-.096-.434-.289-.724-.529-.917h-3.319v11.013s-.144 1.256.193 1.98c.336.725 1.635 1.063 1.635 1.063 1.106.338 1.924 1.401 1.924 2.656a2.798 2.798 0 01-2.79 2.802 2.797 2.797 0 01-2.789-2.802c0-.676.192-1.255.577-1.738 0 0-.914-.387-1.443-1.401-.577-1.014-.481-3.236-.481-3.236V5.45H3.521a2.057 2.057 0 00-2.068 2.077V33.61c0 1.16.914 2.078 2.068 2.078h28.616c.336 0 .625.289.625.627 0 .339-.289.628-.625.677H3.521c-1.827 0-3.318-1.497-3.318-3.333V7.527c0-1.836 1.491-3.333 3.318-3.333h120.763V1.73h-1.731V.571h6.589V1.73h-1.732v2.512h2.982l1.251-.241c.192 0 .481-.194.721-.194.144 0 .529.049.529.532 0 .773-.385.773-.577 2.995zm-3.992 16.036c.673 0 1.203-.531 1.203-1.208 0-.676-.53-1.207-1.203-1.207s-1.202.531-1.202 1.207c0 .677.529 1.208 1.202 1.208z"/></svg>