<svg xmlns="http://www.w3.org/2000/svg" width="45" height="141"><path fill-rule="evenodd" opacity=".322" fill="#FFF" d="M8.831 4.452v.769H6.03V3.49c0-.337.048-1.155.772-1.155.483 0 .677.337.725.578.097-.482.483-.482.676-.482.387 0 .483 0 .628-.144v.818c-.193.144-.29.096-.724.144-.338.048-.338.433-.338.529v.625l1.062.049zM7.285 3.73c0-.481-.193-.529-.338-.529-.289 0-.386.193-.386.529v.722h.724V3.73z"/><path fill-rule="evenodd" opacity=".322" fill="#FFF" d="M7.479 6.904c-1.691 0-3.092-1.394-3.092-3.078 0-1.683 1.401-3.078 3.092-3.078 1.69 0 3.091 1.395 3.091 3.078a3.075 3.075 0 01-3.091 3.078zm0-5.675A2.592 2.592 0 004.87 3.826a2.592 2.592 0 002.609 2.597 2.591 2.591 0 002.608-2.597 2.591 2.591 0 00-2.608-2.597zm21.253 131.873v-1.731H18.588c-1.111 0-2.222 0-4.202-.048-2.415-.722-4.251-2.598-4.251-4.954 0-3.078 2.126-5.194 5.555-5.194 2.705 0 5.362 1.25 5.362 3.462 0 .915-.387 1.251-1.014 2.117l2.511 1.49h6.183v-1.731h1.159v6.589h-1.159zm-10.095-6.252c.241-.192.483-.577.483-.77 0-.528-.58-1.346-3.478-1.346-1.932 0-4.299.192-4.299 1.731 0 1.876 3.719 1.683 5.796 1.683h3.72l-2.222-1.298zm9.805-14.043l-7.149 1.538c4.203.626 8.743 2.646 8.743 4.858 0 1.299-1.111 2.309-3.333 2.309-2.994 0-6.569-1.539-9.467-2.934-2.464-1.154-3.719-2.309-6.183-2.02v1.587H9.894v-6.396h1.159v1.635l17.437-3.8v-.962h1.16v5.723h-1.208v-1.538zm-14.153 3.078c2.367 1.298 6.425 3.174 9.371 3.414h.725c.628-.048 1.352-.337 1.352-1.154 0-1.587-4.444-2.934-7.052-3.174l-4.396.914zm19.418-19.959c-3.574.385-3.719 1.971-3.719 3.51v2.117c0 1.394-.242 3.077 2.27 3.751 1.063.289 2.657.337 2.657 1.01 0 .481-.821.529-1.304.577-3.188.289-3.188.818-4.348.818-.724 0-.821-.577-.821-.818 0-.337.097-.433.097-.721 0-.529-.676-.625-1.063-.673-1.159-.193-4.009-.193-8.839-2.069-2.367-.913-3.913-1.827-5.7-1.827-.483 0-1.256.144-1.256 1.202v1.106h-1.159v-6.781h1.159v1.154c4.685-.288 17.051-2.068 17.051-2.934 0-.288-.338-.625-.338-.961 0-.289.386-.578.966-.578s1.256.433 3.236.722c.87.096 2.319.144 2.319.769 0 .482-.676.578-1.208.626zm-4.927 3.029c-8.501 1.684-7.245 1.347-12.51 2.117 3.043 1.731 8.308 3.174 10.723 3.174 1.642 0 1.787-.577 1.787-1.731v-3.56zM11.729 86.067H10.57v6.588h1.159v-1.683H28.78v1.683h1.16v-6.588h-1.16v1.683H11.729v-1.683zM29.94 68.849v-5.483h-1.16v1.443L11.729 67.55v-1.346H10.57v5.531h1.159v-.914l.483-.049c2.609-.096 5.024 1.684 7.922 3.175.193.096.435.24.628.336l-9.033 1.443v-1.154H10.57v5.867h1.159V78.9c2.754-.336 5.314 1.539 8.405 3.127 2.464 1.298 4.685 2.212 8.067 2.212 2.318 0 2.028-.577 1.932-1.154-.048-.433-.097-.77 0-1.203.096-.432.241-.817 0-1.202-.145-.241-.338-.289-.58-.289-.483-.048-.966 0-1.401 0-1.739.096-3.043.289-4.588.289-3.285 0-5.99-.962-8.84-2.357l14.346-2.26c1.401-.145 1.208-.625 1.111-1.106-.048-.433-.096-.77 0-1.203.097-.432.242-.817 0-1.202-.145-.24-.338-.288-.58-.288-.483-.048-.966 0-1.4 0-1.739.096-3.043.288-4.589.288-3.285 0-5.99-.962-8.84-2.357l-.048-.048 14.105-2.26v.914h1.111v.048zm-1.16-14.957l-7.197 1.539c4.203.625 8.743 2.645 8.743 4.857 0 1.299-1.111 2.309-3.333 2.309-2.995 0-6.569-1.539-9.467-2.934-2.464-1.154-3.72-2.308-6.183-2.02v1.587h-1.159v-6.396h1.159v1.635l17.437-3.8v-1.442h1.16v6.252h-1.16v-1.587zm-14.201 2.982c2.367 1.25 6.425 3.174 9.371 3.414h.725c.627-.048 1.352-.337 1.352-1.154 0-1.539-4.492-2.886-7.052-3.174l-4.396.914zm2.85-29.626v-5.387H16.27v.866c-2.367.289-6.086 1.491-6.086 5.675 0 3.752 3.671 6.3 8.598 6.3 1.352 0 2.946-.096 5.555-1.538 1.449-.818 2.946-1.924 5.12-1.973h.772c.242-.384.339-.721.339-1.49 0-2.646-2.899-6.781-8.212-6.974v-.866h-1.159v5.387h1.159v-.866c4.106-.288 7.487 1.876 7.487 3.271 0 .24-.048.384-.145.48-.628-.144-.918-.24-1.546-.24-1.014 0-2.173.144-4.009.433-2.27.433-4.347.721-6.811.721-4.492 0-5.941-1.202-5.941-2.452 0-.866.58-2.309 4.927-2.213v.866h1.111zm12.172 11.35c.242 0 .387-.048.58-.288.242-.385.097-.77 0-1.203-.096-.433-.048-.77 0-1.202.097-.577.338-1.395-1.884-1.155-2.801.337-3.767.626-5.168 1.155-2.609 1.058-3.719 3.318-3.913 6.156-3.526-1.347-5.41-2.02-5.41-3.271 0-.721.29-1.009.677-1.779v-.433c-1.739.048-2.174-.144-3.816-.577-.29.433-.483 1.106-.483 1.828 0 2.789 6.182 4.136 8.163 4.857l.773.289v.769h-7.391v-1.443H10.57v6.301h1.159V46.87H28.78v1.299h1.16v-5.771h-1.16v1.298h-8.694l-.048-.096c0-3.078.579-5.339 3.719-5.339 1.497 0 2.801.193 4.492.289.435.096.869.096 1.352.048zm12.463 94.264c.386 0 .724.048.917.192.049.048.145.192.145.288l.483-.096a.973.973 0 00-.144-.529c-.242-.384-.773-.481-1.45-.481h-.627v-.577h2.173v-.577h-2.657v1.78h1.16zm-.097-5.772c.29.145.628.337.966.481-.338-.048-.773-.048-1.207-.048h-.773v.529h2.608v-.673l-.966-.529c-.29-.144-.628-.337-.966-.433.338.048.725.048 1.111.048h.821v-.577h-2.657v.625l1.063.577zm-.531-3.992v-.673h2.125v-.625h-2.125v-.721h-.532v2.019h.532zm1.014-5.386v-.962h-.483v.962h-.579v-1.058h-.484v1.635h2.657v-1.683h-.483v1.106h-.628zm-.483-4.954c.29.145.628.337.966.481-.338-.048-.773-.048-1.207-.048h-.773v.529h2.608v-.673l-.966-.529c-.29-.144-.628-.337-.966-.433.338.048.725.048 1.111.048h.821v-.529h-2.657v.625l1.063.529zm-1.159-.096c0-.336-.145-.577-.483-.577v.385c.145 0 .241.048.241.192 0 .144-.096.193-.241.193v.432c.29-.096.483-.288.483-.625zm1.111-5.675v1.01h-1.015v.577h2.657v-.577H42.45v-1.01h1.111v-.577h-2.657v.577h1.015zm.338-3.463c-.821 0-1.401-.529-1.401-1.298s.628-1.25 1.353-1.25c.869 0 1.4.529 1.4 1.298s-.579 1.25-1.352 1.25zm-.048-1.875c-.483 0-.87.192-.87.625 0 .385.387.625.918.625.483 0 .869-.24.869-.625 0-.433-.386-.673-.917-.625zm.145-3.367v-1.01h.386v1.01h-.386zm-1.45-5.819l.87.289c.29.096.628.192.966.24-.338.048-.628.144-.966.24l-.87.241v.817l2.657.193v-.577l-1.014-.048c-.338 0-.725-.049-1.111-.049a8.448 8.448 0 001.062-.24l1.015-.289v-.48l-1.063-.337c-.29-.096-.676-.192-1.014-.289.386 0 .773 0 1.111-.048l1.014-.048v-.577l-2.657.144v.818zm1.546-4.425v-.961h-.483v.961h-.579l-.001-1.058h-.483v1.683h2.657v-1.731h-.483v1.106h-.628zm-1.546-6.011v.673l.483.24c.145.048.29.097.435.193-.145.048-.29.144-.435.192l-.483.241v.673l1.305-.722 1.352.77v-.673l-.483-.241a3.329 3.329 0 00-.483-.192c.145-.096.29-.144.483-.241l.483-.24v-.673l-1.352.769-1.305-.769zm2.657-3.223v.625l-2.657-.817v-.77l2.657-.817v.625l-.676.192v.77l.676.192zm-1.111-.865l-.58.144c-.193.048-.386.096-.531.144.193.048.387.096.531.144l.58.145v-.577zm-.531-5.339v.962h-1.015v.625h2.657v-.625H42.45V72.6h1.111v-.625h-2.657v.625h1.015zm.048-4.617c.29.145.628.337.966.481-.338-.048-.773-.048-1.207-.048h-.773v.529h2.608v-.673l-.966-.529c-.29-.144-.628-.337-.966-.433.338.048.725.048 1.111.048h.821v-.529h-2.657v.625l1.063.529zm.048-5.53a.89.89 0 01.097.384c0 .289-.145.433-.435.433h-.773v.577h.87c.58 0 .821-.336.821-.817 0-.241-.048-.385-.145-.577h1.111v-.577h-2.657v.577h1.111zm.435-4.185v-.961h-.483v.961h-.58v-1.01h-.483v1.636h2.657V57.21h-.483v1.058h-.628zm-1.063-5.29c0-.192.049-.385.097-.481l-.483-.144c-.048.096-.097.337-.097.673 0 .818.483 1.443 1.401 1.443.773 0 1.353-.481 1.353-1.395 0-.336-.049-.577-.097-.673l-.483.096c.048.096.097.337.097.481 0 .529-.338.866-.87.866-.628 0-.918-.385-.918-.866zm-.483-4.809l1.111.721v.048h-1.111v.577h2.657v-.577H42.45v-.096c0-.337.242-.433.531-.529a2.72 2.72 0 00.58-.192v-.625c-.241.144-.531.192-.821.288-.338.096-.58.24-.628.625l-1.159-.913-.049.673zm1.063-4.473c.29.144.628.337.966.481-.338-.048-.773-.048-1.207-.048h-.773v.529h2.608v-.673l-.966-.529c-.29-.145-.628-.337-.966-.433.338.048.725.048 1.111.048h.821v-.529h-2.657v.625l1.063.529zm-1.159-5.242c0-.337-.145-.577-.483-.577v.384c.145 0 .241.049.241.193 0 .144-.096.192-.241.192v.433c.29-.096.483-.289.483-.625zm1.159.048c.29.144.628.336.966.481-.338-.048-.773-.048-1.207-.048h-.773v.529h2.608v-.674l-.966-.529c-.29-.144-.628-.336-.966-.432.338.048.725.048 1.111.048h.821v-.529h-2.657v.625l1.063.529zm.242-8.513c-.097-.288-.29-.529-.628-.529-.387 0-.677.337-.677.914 0 .385.097.625.194.817l.434-.144c-.096-.144-.145-.385-.145-.577 0-.24.097-.385.29-.385.193 0 .338.193.338.481v.241h.435v-.241c0-.24.048-.577.338-.577.242 0 .338.193.338.481 0 .241-.096.529-.145.625l.484.144c.144-.24.193-.528.193-.817 0-.481-.193-1.106-.821-1.106-.387.048-.58.337-.628.673zm1.352-3.896v.626l-2.657-.818v-.769l2.657-.818v.625l-.676.193v.769l.676.192zm-1.111-.865l-.58.144c-.193.048-.386.096-.531.144.193.048.387.097.531.145l.58.144v-.577zm1.111-3.752h-2.608c0-.144-.049-.48-.049-.769 0-.337.049-.577.145-.769a.594.594 0 01.532-.337c.241 0 .483.144.579.433.049-.289.29-.529.628-.577.242 0 .435.144.58.288.145.193.241.529.241 1.058 0 .337-.048.529-.048.673zm-1.594-.769c0-.288-.145-.481-.338-.481-.193 0-.29.144-.29.433v.24h.628v-.192zm1.208-.048c0-.24-.097-.481-.387-.481-.29 0-.386.241-.386.529v.192h.773v-.24zm-.918-3.848c-.821 0-1.401-.529-1.401-1.298 0-.818.628-1.25 1.353-1.25.869 0 1.4.529 1.4 1.298s-.579 1.25-1.352 1.25zm-.048-1.923c-.483 0-.87.192-.87.625 0 .385.387.625.918.625.483 0 .869-.24.869-.625s-.386-.625-.917-.625zm2.028-3.704v.481l-1.159.048v-.24c-.193-.096-.386-.192-.58-.24a4.272 4.272 0 00-.869-.097h-.725V9.405l2.174-.144V9.02l1.159.049v.48l-.676.049v1.538l.676.048zm-1.159-1.202h-1.642v.577h.338c.29 0 .58 0 .869.096.145.049.29.145.435.193v-.866zM29.022 20.37l2.946-6.588c.194-.385 0-.866-.386-1.058l-.58-.289.242-.481c.338-.721 0-1.539-.725-1.876l-8.888-3.943-.724-2.212-1.546-.674-4.347 9.715h1.497c.387.048 1.208 0 1.594-.192.29-.144.58-.722.725-1.155v-.048a3.482 3.482 0 013.285-2.356 3.455 3.455 0 013.477 3.463 3.455 3.455 0 01-3.477 3.462c-.532 0-1.063-.144-1.546-.336-.29.336-.676.817-1.304 1.154-.822.432-2.126.529-2.947.529l8.984 3.991c.725.337 1.546 0 1.884-.721l.097-.24.58.288c.483.145.966-.048 1.159-.433zm6.666 76.999v7.069c0 .337.29.625.628.625a.638.638 0 00.628-.625v-7.069a.639.639 0 00-.628-.626.608.608 0 00-.628.626z"/><path fill-rule="evenodd" opacity=".322" fill="#FFF" d="M17.091 3.538c-.145.336 0 .673.338.817.338.145.676 0 .821-.336.966-2.213 1.401-2.405 2.512-2.405h12.897c1.159 0 2.077.913 2.077 2.068v89.406c0 .337.29.625.628.625a.638.638 0 00.628-.625V3.682c0-1.828-1.498-3.319-3.333-3.319H20.762c-1.932 0-2.657.962-3.671 3.175z"/><path fill-rule="evenodd" opacity=".322" fill="#FFF" d="M33.659 140.797H7.527c-1.836 0-3.333-1.491-3.333-3.318V16.715H1.731v1.732H.571v-6.589h1.16v1.731h2.511v-2.982l-.241-1.25c0-.192-.193-.481-.193-.721 0-.144.048-.529.531-.529.773 0 .773.385 2.995.577.29.048.869.096.869.433 0 .432-1.111.481-1.835.673-.435.096-.725.288-.918.529v3.319h11.013s1.256.144 1.98-.193c.725-.336 1.063-1.635 1.063-1.635.338-1.106 1.401-1.924 2.657-1.924a2.797 2.797 0 012.801 2.79 2.796 2.796 0 01-2.801 2.789c-.676 0-1.256-.192-1.739-.577 0 0-.386.914-1.401 1.442-1.014.578-3.236.481-3.236.481H5.45v120.668c0 1.154.918 2.068 2.077 2.068h26.084a2.057 2.057 0 002.077-2.068v-28.616c0-.337.29-.625.628-.625s.628.288.676.625v28.616c0 1.827-1.498 3.318-3.333 3.318zM22.163 13.878c.676 0 1.207-.529 1.207-1.202 0-.674-.531-1.203-1.207-1.203s-1.208.529-1.208 1.203c0 .673.532 1.202 1.208 1.202z"/></svg>