<svg width="128" height="128" viewBox="0 0 128 128" fill="none" xmlns="http://www.w3.org/2000/svg">
<path fill-rule="evenodd" clip-rule="evenodd" d="M16.763 1.31006C13.961 2.88606 11 7.47906 11 10.2491C11 11.3801 9.961 11.7991 7.155 11.7991C2.888 11.7991 0 14.1231 0 17.5561C0 19.7041 2.404 22.7991 4.071 22.7991C4.582 22.7991 5 23.9441 5 25.3441C5 28.7831 9.183 32.7991 12.766 32.7991C16.297 32.7991 20 29.5111 20 26.3751C20 24.9761 21.009 23.3681 22.5 22.3911C25.526 20.4081 25.865 15.8921 23.171 13.4541C22.156 12.5351 19.679 11.7991 17.604 11.7991C14.2 11.7991 13.924 11.5981 14.52 9.54906C16.25 3.60006 24.238 1.74406 27.927 6.43406C29.886 8.92406 30 10.3181 30 31.7791C30 53.2191 29.888 54.5901 28 56.2991C26.371 57.7731 26 59.3791 26 64.9541C26 70.2721 26.324 71.7991 27.452 71.7991C28.535 71.7991 28.98 70.2101 29.202 65.5491C29.464 60.0651 29.745 59.2991 31.5 59.2991C33.447 59.2991 33.507 60.0541 33.766 87.5491L34.031 115.799H31.516H29V96.7991C29 80.5771 28.781 77.7991 27.5 77.7991C26.219 77.7991 26 80.5771 26 96.7991C26 114.34 25.863 115.799 24.223 115.799C21.031 115.799 18 118.722 18 121.799C18 126.53 20.976 127.799 32.068 127.799C40.12 127.799 41.96 127.501 43.345 125.97C46.809 122.143 44.205 115.799 39.171 115.799H37V86.9541C37 59.1441 36.926 58.0421 34.95 56.2541C32.977 54.4681 32.911 53.5171 33.2 31.0091C33.498 7.80106 33.518 7.60406 35.861 5.70906C39.355 2.88206 44.393 3.21206 46.927 6.43406C50.063 10.4201 49.607 11.7991 45.155 11.7991C38.326 11.7991 35.672 17.7371 40.5 22.2111C41.875 23.4861 43 25.4571 43 26.5911C43 29.2701 47.525 32.7991 50.961 32.7991C53.997 32.7991 58 29.1311 58 26.3491C58 25.3481 59.125 23.4861 60.5 22.2111C65.355 17.7121 62.613 11.7991 55.671 11.7991C52.428 11.7991 52 11.5091 52 9.31506C52 5.41006 47.187 0.766064 42.5 0.149064C39.327 -0.268936 37.749 0.134063 34.864 2.10306C31.249 4.57006 31.218 4.57306 29.261 2.61606C26.648 0.00206327 20.272 -0.663936 16.763 1.31006ZM20.964 16.2551C23.139 18.8761 21.042 19.7991 12.91 19.7991C6.522 19.7991 4.815 19.4811 4.323 18.1981C3.39 15.7681 5.828 14.8311 13.128 14.8141C17.725 14.8041 20.125 15.2451 20.964 16.2551ZM58.722 15.9211C59.339 16.5381 59.606 17.6631 59.315 18.4211C58.559 20.3911 42.441 20.3911 41.685 18.4211C41.394 17.6631 41.661 16.5381 42.278 15.9211C43.738 14.4611 57.262 14.4611 58.722 15.9211ZM16.823 25.4301C16.645 26.3261 15.52 27.7091 14.323 28.5031C12.365 29.8011 11.939 29.7381 10.073 27.8721C6.95 24.7491 7.534 23.7991 12.573 23.7991C16.267 23.7991 17.084 24.1131 16.823 25.4301ZM54.823 25.4301C54.645 26.3261 53.579 27.6701 52.454 28.4161C50.71 29.5721 50.081 29.5441 48.204 28.2291C44.451 25.6011 45.415 23.7991 50.573 23.7991C54.267 23.7991 55.084 24.1131 54.823 25.4301ZM52.685 56.0401C51.141 57.1691 50.975 59.0131 51.222 72.3061C51.49 86.7681 51.58 87.3341 53.75 88.2861C55.476 89.0441 56 90.1011 56 92.8291C56 95.9781 55.628 96.4951 52.75 97.3421C46.227 99.2621 46.659 110.845 53.282 111.615C55.876 111.917 56 112.185 56 117.505C56 121.534 55.542 123.413 54.347 124.287C51.211 126.581 53.886 127.799 62.059 127.799C69.333 127.799 70 127.631 70 125.799C70 124.699 69.55 123.799 69 123.799C68.45 123.799 68 122.899 68 121.799C68 119.864 68.667 119.799 88.5 119.799C106.832 119.799 109 119.972 109 121.439C109 122.341 108.256 123.622 107.347 124.287C104.282 126.528 106.871 127.799 114.5 127.799C122.129 127.799 124.718 126.528 121.653 124.287C120.454 123.41 120 121.529 120 117.439C120 112.134 120.144 111.799 122.429 111.799C125.952 111.799 128 109.23 128 104.809C128 99.2301 127.213 97.9301 123.403 97.2151C120.27 96.6271 120 96.2871 120 92.9251C120 90.0971 120.508 89.0511 122.25 88.2861C124.419 87.3351 124.51 86.7631 124.777 72.4341C124.971 62.0461 124.696 57.1381 123.865 56.1361C122.21 54.1421 113.5 54.6991 113.5 56.7991C113.5 57.8491 114.776 58.3911 117.75 58.6061L122 58.9141V71.8561V84.7991H88.5H55V71.8161V58.8321L81.25 58.5661C103.798 58.3371 107.5 58.0871 107.5 56.7991C107.5 55.5101 103.767 55.2621 80.963 55.0331C60.708 54.8301 54.014 55.0691 52.685 56.0401ZM61.446 65.8861C60.416 67.5541 62.733 69.4661 64.113 68.0861C65.267 66.9321 64.545 64.7991 63 64.7991C62.515 64.7991 61.816 65.2881 61.446 65.8861ZM112 66.7991C112 67.9101 112.667 68.7991 113.5 68.7991C114.333 68.7991 115 67.9101 115 66.7991C115 65.6881 114.333 64.7991 113.5 64.7991C112.667 64.7991 112 65.6881 112 66.7991ZM61.446 75.8861C60.416 77.5541 62.733 79.4661 64.113 78.0861C65.267 76.9321 64.545 74.7991 63 74.7991C62.515 74.7991 61.816 75.2881 61.446 75.8861ZM112 76.7991C112 77.9101 112.667 78.7991 113.5 78.7991C114.333 78.7991 115 77.9101 115 76.7991C115 75.6881 114.333 74.7991 113.5 74.7991C112.667 74.7991 112 75.6881 112 76.7991ZM64 92.7991C64 96.1321 63.667 96.7991 62 96.7991C60.333 96.7991 60 96.1321 60 92.7991C60 89.4661 60.333 88.7991 62 88.7991C63.667 88.7991 64 89.4661 64 92.7991ZM109 92.7991V96.7991H88.5H68V92.7991V88.7991H88.5H109V92.7991ZM117 92.7991C117 96.3991 116.75 96.7991 114.5 96.7991C112.25 96.7991 112 96.3991 112 92.7991C112 89.1991 112.25 88.7991 114.5 88.7991C116.75 88.7991 117 89.1991 117 92.7991ZM124 104.299V107.799H100.427C78.515 107.799 76.877 107.922 77.189 109.549C77.49 111.113 79.198 111.328 93.263 111.574C108.173 111.835 109 111.954 109 113.824C109 115.726 108.245 115.799 88.5 115.799C69.053 115.799 68 115.702 68 113.906C68 112.865 68.675 111.754 69.5 111.437C70.325 111.121 71 110.173 71 109.33C71 108.063 69.364 107.799 61.5 107.799H52V104.299V100.799H88H124V104.299ZM64 117.799C64 123.132 63.778 123.799 62 123.799C60.222 123.799 60 123.132 60 117.799C60 112.466 60.222 111.799 62 111.799C63.778 111.799 64 112.466 64 117.799ZM117 117.799C117 123.532 116.889 123.799 114.5 123.799C112.111 123.799 112 123.532 112 117.799C112 112.066 112.111 111.799 114.5 111.799C116.889 111.799 117 112.066 117 117.799ZM41.5 121.799C41.5 123.006 39.659 123.356 32.09 123.589C22.916 123.871 20.057 123.134 21.468 120.851C21.924 120.113 25.472 119.826 31.831 120.014C39.632 120.244 41.5 120.589 41.5 121.799Z" fill="black"/>
</svg>
