<svg width="128" height="127" viewBox="0 0 128 127" fill="none" xmlns="http://www.w3.org/2000/svg">
<path fill-rule="evenodd" clip-rule="evenodd" d="M49.88 1.14213C38.633 3.67313 27.465 9.94813 18.819 18.5931C-9.76099 47.1741 -5.17299 94.0841 28.399 116.539C32.83 119.502 39.346 122.71 44.165 124.301C51.214 126.629 54.012 127.009 63.88 126.985C73.6 126.961 76.651 126.541 83.595 124.273C103.029 117.924 118.159 102.759 124.542 83.2321C126.764 76.4371 127.187 73.3281 127.211 63.6541C127.235 53.7861 126.855 50.9881 124.527 43.9391C118.153 24.6321 101.979 8.54813 82.895 2.53713C74.296 -0.17087 58.654 -0.83187 49.88 1.14213ZM83.816 6.68713C97.816 11.6381 111.36 23.7391 117.915 37.1541C127.002 55.7531 125.575 79.4911 114.352 96.3941C103.184 113.214 86.54 122.586 66.32 123.441C44.783 124.352 26.276 115.147 14.328 97.5811C7.33601 87.3011 4.80701 79.6571 4.14301 66.7991C3.48901 54.1211 4.69901 47.9811 10.066 36.7551C17.197 21.8401 31.639 9.93513 48.427 5.13413C56.13 2.93013 75.609 3.78613 83.816 6.68713ZM54.131 7.76313C24.855 12.6411 3.58901 41.7231 7.87301 71.0221C11.235 94.0111 26.684 111.653 49.132 118.136C56.684 120.317 71.076 120.317 78.628 118.136C97.857 112.582 112.749 97.6731 118.366 78.3501C120.544 70.8591 120.542 56.4541 118.362 48.9061C115.926 40.4721 110.353 30.4601 104.97 24.8451C99.067 18.6881 89.468 12.2141 87.413 13.0031C85.233 13.8401 85.515 15.1651 88.13 16.3681C94.663 19.3741 109.671 33.6201 108.397 35.6061C108.204 35.9071 106.422 37.0191 104.437 38.0751L100.829 39.9961L95.799 34.3521C90.02 27.8681 79.36 21.9831 71.327 20.8421L66.38 20.1391L66.069 15.2521L65.759 10.3661L70.069 10.9701C72.44 11.3031 75.888 11.8831 77.731 12.2601C80.662 12.8591 81.038 12.7061 80.724 11.0491C80.099 7.74713 65.243 5.91113 54.131 7.76313ZM61.685 15.3961L61.38 20.1391L56.66 20.8091C51.569 21.5321 42.605 25.2901 37.788 28.7191C35.422 30.4041 35.037 31.1381 35.946 32.2331C36.921 33.4091 37.413 33.3941 39.21 32.1361C42.137 30.0851 42.406 30.1861 44.789 34.2251L46.896 37.7961L42.459 42.2331L38.022 46.6701L34.451 44.5631C30.453 42.2041 30.483 42.2641 31.923 39.5731C33.343 36.9211 30.324 35.6651 28.506 38.1511C27.085 40.0951 24.763 39.6961 21.15 36.8871L18.919 35.1541L22.672 30.4081C31.055 19.8041 47.389 10.9971 59.185 10.7201C61.914 10.6561 61.981 10.7821 61.685 15.3961ZM51.145 15.1961C43.034 17.3801 36.027 21.3721 29.684 27.4221C24.166 32.6851 22.491 35.6541 25.04 35.6541C25.677 35.6541 28.801 33.1721 31.981 30.1391C38.254 24.1561 47.714 19.1011 54.562 18.0741C57.898 17.5741 58.88 16.9981 58.88 15.5401C58.88 13.3391 58.157 13.3071 51.145 15.1961ZM68.38 14.6541C67.305 16.3941 68.723 17.4031 73.186 18.0731C79.976 19.0911 88.906 23.8581 95.553 30.0121C98.905 33.1151 102.15 35.6541 102.764 35.6541C105.349 35.6541 103.495 32.5131 97.794 27.2351C90.938 20.8871 84.586 17.3331 76.187 15.1461C69.4 13.3781 69.177 13.3641 68.38 14.6541ZM61.88 28.5221V33.3911L57.63 34.0911C49.911 35.3621 49.621 35.2971 47.588 31.8571C46.517 30.0431 45.911 28.2901 46.241 27.9601C47.288 26.9121 57.289 23.7211 59.63 23.6871C61.66 23.6571 61.88 24.1311 61.88 28.5221ZM74.448 25.1501C82.266 27.5221 82.532 27.8631 79.892 32.1341C78.079 35.0691 77.185 35.6891 75.498 35.1841C74.333 34.8351 71.693 34.2891 69.63 33.9701C65.89 33.3921 65.88 33.3781 65.88 28.5221C65.88 22.9161 66.404 22.7101 74.448 25.1501ZM92.023 35.5111C94.694 38.1831 96.88 40.8381 96.88 41.4121C96.88 41.9871 95.273 43.4051 93.309 44.5631L89.738 46.6701L85.229 42.1601L80.719 37.6511L82.881 34.1521C84.07 32.2281 85.521 30.6541 86.104 30.6541C86.688 30.6541 89.351 32.8401 92.023 35.5111ZM61.88 41.5291C61.88 46.1151 61.707 46.4391 58.962 46.9881C57.357 47.3091 54.544 48.8811 52.712 50.4831L49.38 53.3941L45.63 51.0101C42.268 48.8711 42.01 48.4171 43.13 46.6091C45.481 42.8161 55.996 36.8611 60.63 36.6981C61.465 36.6691 61.88 38.2721 61.88 41.5291ZM75.88 39.6881C77.805 40.6731 80.902 43.0641 82.762 45.0011L86.145 48.5221L82.762 50.5841C78.489 53.1901 78.291 53.1781 74.635 50.1011C72.966 48.6971 70.314 47.2911 68.74 46.9761C66.055 46.4391 65.88 46.1011 65.88 41.4501V36.4951L69.13 37.1971C70.917 37.5821 73.955 38.7041 75.88 39.6881ZM23.64 42.4321C24.628 43.1001 24.444 44.5641 22.787 49.2191C19.805 57.5931 19.834 70.0751 22.852 77.9731C24.075 81.1731 24.919 83.9081 24.728 84.0491C24.536 84.1911 22.686 85.3251 20.617 86.5701L16.853 88.8341L15.355 85.2481C9.51901 71.2801 9.51201 56.0441 15.335 42.1071C16.793 38.6181 16.853 38.5901 19.597 40.0751C21.128 40.9031 22.947 41.9641 23.64 42.4321ZM113.875 46.5921C117.985 58.8831 117.543 72.5101 112.665 83.9081L110.63 88.6631L107.005 86.4851C105.011 85.2871 103.245 84.2121 103.08 84.0971C102.915 83.9821 103.703 81.1491 104.83 77.8021C107.6 69.5791 107.6 57.7291 104.83 49.5061C103.703 46.1591 102.915 43.3001 103.08 43.1531C104.987 41.4501 110.49 38.8701 111.026 39.4281C111.409 39.8271 112.691 43.0511 113.875 46.5921ZM51.339 43.7211C50.419 45.2101 51.486 46.0191 53.4 45.2851C54.284 44.9461 54.727 44.2151 54.384 43.6611C53.574 42.3501 52.169 42.3771 51.339 43.7211ZM73.568 43.3001C72.263 44.6041 72.886 45.6541 74.963 45.6541C76.127 45.6541 76.872 45.1301 76.651 44.4671C76.164 43.0051 74.494 42.3731 73.568 43.3001ZM16.799 46.3671C12.52 57.6221 13.697 81.4951 18.624 83.3861C20.931 84.2711 21.053 83.0551 19.266 77.0111C17.113 69.7301 17.118 56.9871 19.278 50.1541C21.235 43.9611 21.239 43.6541 19.355 43.6541C18.517 43.6541 17.366 44.8751 16.799 46.3671ZM106.891 44.9041C106.897 45.5921 107.572 48.3631 108.391 51.0631C109.21 53.7631 109.88 59.4291 109.88 63.6541C109.88 67.8791 109.21 73.5451 108.391 76.2451C106.538 82.3531 106.515 83.6541 108.259 83.6541C110.823 83.6541 113.831 72.8561 113.831 63.6541C113.831 54.4521 110.823 43.6541 108.259 43.6541C107.5 43.6541 106.885 44.2171 106.891 44.9041ZM32.734 47.7061C35.426 49.3481 35.958 50.1851 35.432 51.9531C35.071 53.1631 34.515 55.8421 34.196 57.9041C33.618 61.6441 33.604 61.6541 28.748 61.6541C23.1 61.6541 22.938 61.2041 25.485 52.5861C27.879 44.4851 27.676 44.6221 32.734 47.7061ZM100.707 48.4041C102.046 51.8481 103.867 58.7471 103.874 60.4041C103.878 61.2381 102.216 61.6541 98.88 61.6541C94.378 61.6541 93.874 61.4301 93.824 59.4041C93.793 58.1671 93.209 55.5791 92.527 53.6541C91.312 50.2241 91.357 50.1091 94.833 47.9091C99.305 45.0791 99.417 45.0881 100.707 48.4041ZM71.793 52.4021C80.413 58.7151 79.053 71.4971 69.268 76.1401C59.996 80.5401 48.998 72.5011 50.254 62.2411C51.523 51.8791 63.567 46.3771 71.793 52.4021ZM47.21 63.5401C47.049 70.7401 46.885 71.2491 44.21 72.8991C42.653 73.8581 40.835 74.6461 40.169 74.6491C37.056 74.6621 36.021 58.9971 38.792 53.8191C39.865 51.8131 39.867 51.8131 43.623 53.8691L47.38 55.9261L47.21 63.5401ZM89.757 57.0801C90.375 59.5331 90.88 62.9151 90.88 64.5971C90.88 66.6481 91.374 67.6541 92.38 67.6541C93.205 67.6541 93.88 67.2041 93.88 66.6541C93.88 66.1041 96.166 65.6541 98.959 65.6541H104.039L103.377 68.9041C100.788 81.6251 100.131 82.4851 95.149 79.6851C91.91 77.8641 91.277 77.0271 91.654 75.0581C91.977 73.3651 91.66 72.6541 90.58 72.6541C89.737 72.6541 88.843 73.2171 88.594 73.9041C88.257 74.8331 87.173 74.6411 84.369 73.1541L80.596 71.1541L80.487 63.5291L80.378 55.9031L83.879 53.9531C85.804 52.8811 87.662 52.1421 88.007 52.3111C88.352 52.4811 89.139 54.6271 89.757 57.0801ZM59.335 59.1091C57.26 61.1831 56.831 62.3381 57.35 64.4541C58.287 68.2781 60.304 69.9871 63.88 69.9871C67.824 69.9871 70.213 67.5981 70.213 63.6541C70.213 60.0781 68.504 58.0611 64.68 57.1241C62.564 56.6051 61.409 57.0341 59.335 59.1091ZM66.38 63.6541C66.38 65.4871 65.778 66.2391 64.126 66.4741C62.773 66.6661 61.63 66.1661 61.269 65.2241C60.273 62.6291 61.668 60.4851 64.126 60.8341C65.778 61.0691 66.38 61.8211 66.38 63.6541ZM40.38 62.6541C39.651 63.8341 40.597 65.6541 41.939 65.6541C42.457 65.6541 42.88 64.7541 42.88 63.6541C42.88 61.5451 41.425 60.9631 40.38 62.6541ZM84.326 62.7411C83.296 64.4091 85.613 66.3211 86.993 64.9411C88.147 63.7871 87.425 61.6541 85.88 61.6541C85.395 61.6541 84.696 62.1431 84.326 62.7411ZM34.196 69.4041C34.515 71.4671 35.061 74.1071 35.41 75.2721C35.91 76.9431 35.317 77.8391 32.594 79.5221C30.696 80.6941 28.908 81.6541 28.621 81.6541C27.752 81.6541 25.167 74.4371 24.412 69.9041L23.704 65.6541H28.66H33.617L34.196 69.4041ZM58.806 80.1381C61.732 80.7801 61.88 81.0511 61.88 85.7531C61.88 90.6301 61.845 90.6841 59.13 90.0521C53.708 88.7911 48.322 85.8451 44.948 82.2951C43.061 80.3091 41.711 78.5361 41.948 78.3541C42.186 78.1731 43.933 77.0731 45.83 75.9111L49.28 73.7981L52.506 76.6301C54.28 78.1881 57.115 79.7661 58.806 80.1381ZM85.812 78.3501C86.049 78.5341 84.699 80.3091 82.812 82.2951C79.438 85.8451 74.052 88.7911 68.63 90.0521C65.915 90.6841 65.88 90.6301 65.88 85.7531C65.88 81.1391 66.067 80.7721 68.721 80.1891C70.284 79.8461 73.074 78.3031 74.921 76.7611L78.279 73.9571L81.83 75.9861C83.782 77.1021 85.574 78.1661 85.812 78.3501ZM42.467 85.0831L46.896 89.5121L44.789 93.0831C43.631 95.0471 42.213 96.6541 41.638 96.6541C40.278 96.6541 30.88 87.2561 30.88 85.8951C30.88 85.0451 36.518 80.7321 37.709 80.6711C37.89 80.6621 40.031 82.6471 42.467 85.0831ZM51.326 81.7411C50.468 83.1301 52.37 85.0871 53.749 84.2351C54.898 83.5251 54.162 80.6541 52.832 80.6541C52.373 80.6541 51.696 81.1431 51.326 81.7411ZM73.326 81.7411C72.296 83.4091 74.613 85.3211 75.993 83.9411C77.147 82.7871 76.425 80.6541 74.88 80.6541C74.395 80.6541 73.696 81.1431 73.326 81.7411ZM93.512 82.7361C95.364 83.8801 96.88 85.2521 96.88 85.7831C96.88 87.0421 87.268 96.6541 86.009 96.6541C85.478 96.6541 84.048 95.0431 82.831 93.0751L80.619 89.4961L84.958 85.0751C87.344 82.6431 89.487 80.6541 89.72 80.6541C89.953 80.6541 91.66 81.5911 93.512 82.7361ZM32.748 93.6821C39.622 100.556 48.781 105.381 56.745 106.324L61.88 106.933V111.793C61.88 117.414 61.818 117.435 52.12 115.148C40.357 112.375 27.442 103.869 20.773 94.5041L18.883 91.8491L22.131 89.7681C23.918 88.6241 25.682 87.6801 26.05 87.6711C26.418 87.6621 29.433 90.3671 32.748 93.6821ZM105.519 89.7401L108.894 91.8261L106.995 94.4931C100.318 103.869 87.409 112.374 75.64 115.148C65.942 117.435 65.88 117.414 65.88 111.793V106.933L71.015 106.324C79.145 105.361 88.27 100.517 94.731 93.7331C97.838 90.4711 100.777 87.7691 101.262 87.7281C101.747 87.6871 103.663 88.5931 105.519 89.7401ZM24.227 92.1931C23.227 94.7981 34.09 104.707 42.074 108.472C50.414 112.405 57.44 113.889 58.974 112.041C60.252 110.501 60.582 110.67 51.38 108.144C43.506 105.982 37.661 102.513 30.65 95.8411C25.733 91.1611 24.821 90.6441 24.227 92.1931ZM59.63 93.6101C61.665 93.6501 61.88 94.1441 61.88 98.7791V103.904L58.684 103.265C53.539 102.236 48.485 100.722 47.003 99.7671C45.871 99.0371 46.021 98.1751 47.852 94.9181L50.078 90.9581L53.729 92.2621C55.737 92.9791 58.393 93.5861 59.63 93.6101ZM81.875 98.7831C81.884 99.9011 70.56 103.501 66.63 103.63C66.218 103.643 65.88 101.404 65.88 98.6541C65.88 94.1521 66.104 93.6481 68.13 93.5981C69.367 93.5671 71.955 92.9831 73.88 92.3011C77.31 91.0861 77.425 91.1311 79.625 94.6071C80.86 96.5581 81.872 98.4371 81.875 98.7831ZM98.293 94.8241C92.409 100.969 83.739 106.206 76.159 108.193C68.606 110.173 66.687 111.299 68.722 112.557C70.657 113.752 78.46 111.88 85.626 108.501C92.035 105.479 103.88 95.4891 103.88 93.1051C103.88 90.3201 102.072 90.8761 98.293 94.8241Z" fill="black"/>
</svg>
