<svg width="128" height="119" viewBox="0 0 128 119" fill="none" xmlns="http://www.w3.org/2000/svg">
<path fill-rule="evenodd" clip-rule="evenodd" d="M1.571 1.4549C0.482 2.5449 0 4.9219 0 9.2109V15.3949L33.978 49.3619C61.079 76.4539 68.207 83.0769 69.2 82.0839C70.193 81.0909 63.721 74.1139 37.222 47.6059L4 14.3729V9.0059C4 4.3489 4.198 3.8039 5.5 4.8839C6.325 5.5689 7 7.5589 7 9.3059C7 13.2999 8.554 14.8839 12.472 14.8839C14.993 14.8839 17.008 16.3629 23.711 23.1339C30.366 29.8569 31.935 32.0319 32.189 34.8839C32.474 38.0869 32.797 38.4099 36 38.6949C38.852 38.9489 41.027 40.5179 47.75 47.1729C54.702 54.0549 56 55.8489 56 58.5769C56 62.0889 58.099 63.8839 62.208 63.8839C65.404 63.8839 80 78.5169 80 81.7219C80 85.7659 81.809 87.8839 85.264 87.8839C87.927 87.8839 89.832 89.2509 96.715 96.0979C102.445 101.798 105.291 103.993 106.015 103.269C106.738 102.546 106.396 101.386 104.896 99.4789L102.734 96.7309L107.075 92.3069C111.401 87.8999 111.442 87.8839 118.508 87.8839C126.25 87.8839 128 86.9619 128 82.8839C128 78.0809 127.072 77.8839 104.487 77.8839H83.374L80.693 75.0859L78.013 72.2879L82.294 68.0859C86.502 63.9569 86.697 63.8839 93.588 63.8839C101.478 63.8839 103 62.9819 103 58.3059C103 54.4319 101.048 52.6329 97.31 53.0619C93.605 53.4869 93.558 56.2759 97.25 56.6999C98.824 56.8819 100 57.6299 100 58.4499C100 59.6469 96.699 59.8839 80 59.8839C62.889 59.8839 60 59.6669 60 58.3839C60 57.1189 62.286 56.8839 74.573 56.8839C87.914 56.8839 89.118 56.7359 88.811 55.1339C88.511 53.5739 86.834 53.3539 73.388 53.1089C58.768 52.8419 58.229 52.7559 55.96 50.3409L53.618 47.8489L58.017 43.3659C62.409 38.8909 62.428 38.8839 69.508 38.8839C77.25 38.8839 79 37.9619 79 33.8839C79 29.0839 78.065 28.8839 55.605 28.8839H34.609L31.792 26.1849L28.975 23.4859L33.196 19.1849C37.338 14.9639 37.541 14.8839 44.126 14.8839C53.182 14.8839 54 14.4639 54 9.8119C54 7.0219 53.465 5.6679 52.066 4.9189C50.916 4.3039 41.957 3.8839 29.973 3.8839C11.33 3.8839 9.624 3.7339 7.273 1.8839C4.208 -0.527104 3.599 -0.573104 1.571 1.4549ZM51 9.3839C51 10.6669 48.111 10.8839 31 10.8839C13.889 10.8839 11 10.6669 11 9.3839C11 8.1009 13.889 7.8839 31 7.8839C48.111 7.8839 51 8.1009 51 9.3839ZM32 15.1969C32 15.3689 30.736 16.7209 29.191 18.2009L26.382 20.8919L23.504 17.8879L20.626 14.8839H26.313C29.441 14.8839 32 15.0249 32 15.1969ZM75 33.8839C75 35.8169 74.333 35.8839 55 35.8839C39 35.8839 35 35.6169 35 34.5509C35 33.8169 35.3 32.9169 35.667 32.5509C36.033 32.1839 45.033 31.8839 55.667 31.8839C74.333 31.8839 75 31.9529 75 33.8839ZM54.231 42.1149L51 45.3459L47.769 42.1149L44.538 38.8839H51H57.462L54.231 42.1149ZM81 64.1969C81 64.3689 79.736 65.7209 78.191 67.2009L75.382 69.8919L72.504 66.8879L69.626 63.8839H75.313C78.441 63.8839 81 64.0249 81 64.1969ZM124 82.8839C124 84.8169 123.333 84.8839 104 84.8839C84.667 84.8839 84 84.8169 84 82.8839C84 80.9509 84.667 80.8839 104 80.8839C123.333 80.8839 124 80.9509 124 82.8839ZM72.431 85.9949C72.032 86.6409 78.385 93.7549 87.611 102.995L103.477 118.884H110.671C116.941 118.884 117.945 118.632 118.488 116.922C119.285 114.41 117.859 111.785 113.879 108.436C111.659 106.568 110.397 106.087 109.658 106.826C108.919 107.565 109.56 108.867 111.802 111.18C113.561 112.994 115 114.795 115 115.182C115 115.568 112.857 115.884 110.238 115.884H105.476L90 100.384C81.488 91.8589 74.208 84.8839 73.821 84.8839C73.434 84.8839 72.809 85.3839 72.431 85.9949ZM103.231 91.1149L100 94.3459L96.769 91.1149L93.538 87.8839H100H106.462L103.231 91.1149Z" fill="black"/>
</svg>
