<svg width="120" height="121" viewBox="0 0 120 121" fill="none" xmlns="http://www.w3.org/2000/svg">
<path fill-rule="evenodd" clip-rule="evenodd" d="M0.667 0.667C0.3 1.033 0 13.298 0 27.922V54.511L32.772 87.272L65.545 120.034L92.522 119.767L119.5 119.5L119.761 77.761C120.015 37.099 119.97 35.97 118.011 34.011C115.454 31.454 112.55 31.45 110 34C108.148 35.852 108 37.333 108 54V72H92H76V54C76 37.333 75.852 35.852 74 34C71.574 31.574 69.211 31.463 66.115 33.632C63.808 35.248 63.611 35.09 46.132 17.632L28.48 0H14.907C7.441 0 1.033 0.3 0.667 0.667ZM45.74 22.24C62.469 38.951 64 40.773 64 43.98C64 47.434 63.731 47.212 44.241 27.741L24.482 8H14.241C4.667 8 4 7.87 4 6C4 4.114 4.667 4 15.74 4H27.48L45.74 22.24ZM18 30V48H11H4V30V12H11H18V30ZM28.719 17.216L34 22.432V39.216V56H28H22V34C22 21.9 22.323 12 22.719 12C23.114 12 25.814 14.347 28.719 17.216ZM50 51.219V64H44H38V45.281V26.563L44 32.5L50 38.437V51.219ZM71.812 38.261C72.043 39.461 71.504 40 70.073 40C68.642 40 68 39.358 68 37.927C68 35.364 71.31 35.655 71.812 38.261ZM115.812 38.261C116.043 39.461 115.504 40 114.073 40C112.642 40 112 39.358 112 37.927C112 35.364 115.31 35.655 115.812 38.261ZM64 62.212V72H59H54V57.288V42.575L59 47.5L64 52.425V62.212ZM72 80C72 115.333 71.963 116 70 116C68.037 116 68 115.333 68 80C68 44.667 68.037 44 70 44C71.963 44 72 44.667 72 80ZM116 80C116 115.333 115.963 116 114 116C112.037 116 112 115.333 112 80C112 44.667 112.037 44 114 44C115.963 44 116 44.667 116 80ZM18.19 55.75L18.5 59.5L26.192 59.791L33.884 60.082L34.192 63.791L34.5 67.5L42.192 67.791L49.884 68.082L50.192 71.791L50.5 75.5L57.25 75.796L64 76.091V94.789V113.487L34 83.5C17.5 67.007 4 53.172 4 52.756C4 52.34 7.123 52 10.94 52H17.879L18.19 55.75ZM26 66C26 67.333 26.667 68 28 68C29.333 68 30 67.333 30 66C30 64.667 29.333 64 28 64C26.667 64 26 64.667 26 66ZM32 74C32 75.733 32.667 76 37 76H42V80V84H49H56V88C56 91.333 56.333 92 58 92C59.778 92 60 91.333 60 86V80H53H46V76V72H39C32.667 72 32 72.19 32 74ZM108 78C108 79.917 107.333 80 92 80C76.667 80 76 79.917 76 78C76 76.083 76.667 76 92 76C107.333 76 108 76.083 108 78ZM108 88V92H92H76V88V84H92H108V88ZM56 98C56 99.333 56.667 100 58 100C59.333 100 60 99.333 60 98C60 96.667 59.333 96 58 96C56.667 96 56 96.667 56 98ZM108 100V104H92H76V100V96H92H108V100ZM108 112V116H92H76V112V108H92H108V112Z" fill="black"/>
</svg>
