<svg width="109" height="128" viewBox="0 0 109 128" fill="none" xmlns="http://www.w3.org/2000/svg">
<path fill-rule="evenodd" clip-rule="evenodd" d="M62.2187 0.677097C56.3437 2.5601 51.6447 6.8391 48.5497 13.1251C45.5447 19.2291 45.5297 19.3431 45.8067 34.2341C46.0387 46.7521 46.3307 49.2061 47.5847 49.2061C48.8227 49.2061 49.1847 46.6661 49.6577 34.6371C50.3307 17.5471 52.0877 12.3871 58.7307 7.9911C68.7157 1.3831 84.3907 6.0561 88.4587 16.8521C89.3897 19.3211 89.2477 19.5281 86.3407 19.9551C83.8277 20.3241 82.5997 19.7881 80.0007 17.1891C74.0467 11.2351 65.2547 12.0501 60.1497 19.0281C58.1807 21.7181 58.0707 23.3381 57.7947 53.8361L57.5047 85.8221L53.7947 85.5141L50.0847 85.2061L49.7987 75.4561C49.5367 66.5301 49.3467 65.7061 47.5487 65.7061C45.7277 65.7061 45.5847 66.4341 45.5847 75.7061V85.7061H42.5847H39.5847V96.2061C39.5847 102.052 39.1707 106.706 38.6497 106.706C38.1357 106.706 36.4827 106.237 34.9757 105.665C31.4747 104.333 27.2727 105.264 23.8107 108.139C22.3117 109.383 19.7347 110.727 18.0847 111.125C14.1687 112.069 9.84471 116.245 9.05371 119.847C8.49671 122.383 7.99471 122.706 4.61271 122.706C0.548712 122.706 -1.30129 124.726 1.00771 126.642C1.91471 127.395 18.3787 127.645 55.1977 127.465C107.332 127.21 108.085 127.178 108.085 125.206C108.085 123.577 107.318 123.15 103.95 122.904C100.257 122.635 99.7507 122.284 99.2197 119.629C98.4707 115.887 94.6207 111.97 90.9207 111.187C87.9117 110.55 87.4297 110.309 83.1277 107.277C80.2317 105.237 75.5527 104.719 71.8707 106.03C69.6877 106.807 69.6517 106.671 69.3707 96.5121L69.0847 86.2061L65.8347 85.8931L62.5847 85.5791V54.5661V23.5521L65.5077 20.6291C68.9147 17.2231 72.3757 16.8921 75.7237 19.6521L78.0847 21.5991L74.4147 24.6591C70.5737 27.8621 66.9087 35.5011 67.9317 38.1681C68.3047 39.1391 69.7887 39.7061 71.9547 39.7061C74.8267 39.7061 75.7287 40.2861 77.4807 43.2551C79.4827 46.6481 84.5407 49.7061 88.1517 49.7061C91.4547 49.7061 96.3777 46.5061 98.1567 43.2021C99.6357 40.4561 100.67 39.7451 103.536 39.5041C106.59 39.2481 107.13 38.8161 107.405 36.4141C107.861 32.4421 103.489 25.5011 99.0517 23.1531C96.2987 21.6961 94.7567 19.8221 92.9247 15.7061C90.0167 9.1731 86.5237 5.2631 81.1137 2.4821C76.6717 0.198097 66.6887 -0.755903 62.2187 0.677097ZM95.6037 26.7161C97.7707 27.8211 100.24 30.0711 101.09 31.7161L102.636 34.7061H88.1107C72.1807 34.7061 71.2657 34.2981 76.3347 29.4501C81.6527 24.3651 88.9627 23.3281 95.6037 26.7161ZM93.9357 41.2341C92.3957 45.2481 85.9597 45.7991 82.5847 42.2061L80.2357 39.7061H87.3787C93.3747 39.7061 94.4277 39.9511 93.9357 41.2341ZM73.6617 56.2951C70.4247 59.0191 69.6397 62.1291 71.9637 63.0211C73.6597 63.6721 79.5847 57.7531 79.5847 55.4081C79.5847 52.9561 77.2057 53.3121 73.6617 56.2951ZM95.5847 55.4081C95.5847 57.7531 101.51 63.6721 103.206 63.0211C105.53 62.1291 104.745 59.0191 101.508 56.2951C97.9637 53.3121 95.5847 52.9561 95.5847 55.4081ZM45.9207 57.2731C45.1987 59.1541 46.9687 61.2051 48.4977 60.2601C50.1457 59.2411 49.8007 55.7061 48.0537 55.7061C47.2107 55.7061 46.2517 56.4111 45.9207 57.2731ZM85.7977 56.8941C84.3937 58.2971 84.2017 64.5531 85.4987 66.6021C85.9997 67.3931 87.0997 67.7231 88.0367 67.3631C89.3397 66.8631 89.6257 65.6291 89.3877 61.5461C89.0767 56.2321 87.9367 54.7541 85.7977 56.8941ZM64.5847 101.246V111.786L60.5847 115.591C58.3847 117.684 56.5847 120.141 56.5847 121.051C56.5847 122.108 55.7717 122.697 54.3347 122.68C52.7127 122.662 51.5937 121.588 50.3277 118.837C49.3607 116.738 47.4487 114.509 46.0777 113.885C43.6397 112.774 43.5847 112.505 43.5847 101.727V90.7061H54.0847H64.5847V101.246ZM36.3957 111.745C37.5997 112.866 38.5847 114.239 38.5847 114.796C38.5847 115.353 40.1047 116.443 41.9637 117.22C44.7957 118.403 46.5847 120.365 46.5847 122.288C46.5847 122.518 39.1597 122.706 30.0847 122.706C16.0847 122.706 13.5847 122.479 13.5847 121.206C13.5847 118.728 17.3887 115.706 20.5077 115.706C22.4227 115.706 24.4657 114.671 26.4307 112.706C29.9317 109.205 33.3187 108.878 36.3957 111.745ZM81.9317 112.706C83.8107 114.356 86.2647 115.706 87.3847 115.706C90.7787 115.706 92.5857 116.807 94.1477 119.827L95.6357 122.706H78.6107C69.2467 122.706 61.5847 122.518 61.5847 122.288C61.5847 120.38 63.3587 118.41 66.1097 117.26C67.9147 116.506 69.6707 115.012 70.0107 113.94C70.6627 111.886 73.9187 109.887 76.7997 109.774C77.7437 109.736 80.0527 111.056 81.9317 112.706Z" fill="black"/>
</svg>
