<svg width="94" height="120" viewBox="0 0 94 120" fill="none" xmlns="http://www.w3.org/2000/svg">
<path fill-rule="evenodd" clip-rule="evenodd" d="M17.6322 2.67447C15.2322 4.81947 14.3972 6.53847 13.9872 10.1745C13.6312 13.3255 12.9852 14.8925 12.0392 14.8925C9.71818 14.8925 5.71518 19.6115 5.71518 22.3475C5.71518 24.2105 5.18918 24.8925 3.75018 24.8925C-1.06582 24.8925 -1.32682 33.3415 3.45218 34.5415C4.94118 34.9155 7.57518 36.7215 9.30518 38.5565C13.2412 42.7295 17.6442 43.0545 21.2602 39.4375C22.6102 38.0875 23.7152 36.5125 23.7152 35.9375C23.7152 35.3625 24.7852 34.8925 26.0932 34.8925C31.4052 34.8925 32.4452 27.4715 27.4652 25.0955C25.6572 24.2325 24.7152 23.0055 24.7152 21.5125C24.7152 19.1545 20.9722 14.8925 18.9012 14.8925C17.1192 14.8925 17.4282 7.32147 19.2862 5.46347C21.2622 3.48847 26.0822 3.42447 27.6822 5.35347C28.3492 6.15647 29.1392 8.74447 29.4362 11.1035C30.0042 15.5975 32.0912 18.8925 34.3702 18.8925C35.1102 18.8925 35.7152 19.7835 35.7152 20.8735C35.7152 22.1525 36.6012 23.0765 38.2152 23.4815L40.7152 24.1095L40.6122 36.2505C40.3522 66.9545 39.2122 90.2285 37.9472 90.6495C34.6372 91.7505 33.7152 94.1055 33.7152 101.463C33.7152 108.721 33.6572 108.892 31.2152 108.892C28.4712 108.892 24.7152 112.048 24.7152 114.353C24.7152 115.501 22.8412 115.876 15.9652 116.103C8.98218 116.334 7.21518 116.695 7.21518 117.892C7.21518 119.2 12.2712 119.392 46.7152 119.392C81.1592 119.392 86.2152 119.2 86.2152 117.892C86.2152 116.687 84.3932 116.335 76.9652 116.104C68.6352 115.846 67.7152 115.627 67.7152 113.911C67.7152 111.604 64.1052 108.892 61.0332 108.892C58.9212 108.892 58.7802 108.43 58.5052 100.642C58.2472 93.3075 57.9772 92.2875 56.0662 91.4485C54.0122 90.5465 53.8892 89.6815 53.3002 71.9485C52.9622 61.7425 52.4152 46.7545 52.0862 38.6425C51.4952 24.0555 51.5122 23.8925 53.6272 23.8925C54.9872 23.8925 56.1102 22.9835 56.7152 21.3925C57.2382 20.0175 58.2822 18.8925 59.0352 18.8925C61.3992 18.8925 63.7152 15.3755 63.7152 11.7865C63.7152 9.88947 64.4162 7.33747 65.2722 6.11547C67.1942 3.37047 71.7482 3.16647 74.0602 5.72147C76.0642 7.93547 76.3252 14.8925 74.4042 14.8925C72.2532 14.8925 68.6752 18.8415 68.0662 21.8875C67.6842 23.7985 66.7142 24.9275 65.1062 25.3305C61.0032 26.3605 62.2312 34.8925 66.4822 34.8925C67.2342 34.8925 69.3352 36.4675 71.1502 38.3925C75.6772 43.1925 79.7532 43.1925 84.2802 38.3925C86.0952 36.4675 88.2762 34.8925 89.1252 34.8925C89.9742 34.8925 91.3662 33.8285 92.2192 32.5275C94.1522 29.5765 92.7402 24.8925 89.9162 24.8925C88.6122 24.8925 87.7952 23.7895 87.1412 21.1425C86.4592 18.3815 85.3852 16.9975 83.0682 15.8925C80.3862 14.6145 79.8282 13.6995 79.2922 9.70947C78.4442 3.38947 74.0282 -0.576526 68.7702 0.259474C63.9802 1.02147 60.7152 4.89847 60.7152 9.82547C60.7152 14.3805 58.1982 17.3065 56.9752 14.1725C56.5572 13.1015 54.5812 10.8005 52.5832 9.05847C47.5602 4.67947 44.2202 4.85847 39.4652 9.75947C37.4032 11.8865 35.7152 14.1905 35.7152 14.8815C35.7152 15.8845 35.4132 15.8865 34.2152 14.8925C33.3902 14.2075 32.7152 12.3825 32.7152 10.8355C32.7152 6.33747 31.0262 3.10447 27.8082 1.44047C23.5252 -0.774526 21.1742 -0.489526 17.6322 2.67447ZM48.2152 9.89247C48.5672 10.4615 47.7062 10.8925 46.2152 10.8925C44.7242 10.8925 43.8632 10.4615 44.2152 9.89247C44.5552 9.34247 45.4552 8.89247 46.2152 8.89247C46.9752 8.89247 47.8752 9.34247 48.2152 9.89247ZM53.7152 17.3925C53.7152 21.3165 53.4752 21.3865 43.9652 20.2445C39.4192 19.6985 38.7152 19.3195 38.7152 17.4195C38.7152 14.1845 39.3912 13.8925 46.8822 13.8925H53.7152V17.3925ZM20.1442 19.4635C21.0082 20.3285 21.7152 21.9245 21.7152 23.0115C21.7152 24.7985 21.1242 24.9595 15.5442 24.6905C8.71718 24.3605 7.46218 23.1455 10.6532 19.9555C13.1022 17.5055 17.9352 17.2555 20.1442 19.4635ZM81.7812 18.9275C82.8902 19.5215 83.7152 21.0145 83.7152 22.4275C83.7152 24.7735 83.4252 24.8925 77.7152 24.8925C72.0142 24.8925 71.7152 24.7705 71.7152 22.4425C71.7152 18.4865 77.3082 16.5335 81.7812 18.9275ZM49.1222 53.6425C49.4732 70.0055 49.9792 85.0805 50.2492 87.1425L50.7392 90.8925H46.6152H42.4912L43.1232 67.1425C44.1242 29.5645 44.5942 23.8925 46.7082 23.8925C48.3582 23.8925 48.5322 26.0385 49.1222 53.6425ZM27.7152 29.3925C27.7152 30.6425 25.7152 30.8925 15.7152 30.8925C5.71518 30.8925 3.71518 30.6425 3.71518 29.3925C3.71518 28.1425 5.71518 27.8925 15.7152 27.8925C25.7152 27.8925 27.7152 28.1425 27.7152 29.3925ZM89.7152 29.3925C89.7152 30.6425 87.7152 30.8925 77.7152 30.8925C67.7152 30.8925 65.7152 30.6425 65.7152 29.3925C65.7152 28.1425 67.7152 27.8925 77.7152 27.8925C87.7152 27.8925 89.7152 28.1425 89.7152 29.3925ZM19.8052 36.2845C17.8812 38.6025 14.8542 38.8295 12.4612 36.8335L10.2152 34.9595L15.5872 34.9255C20.0662 34.8985 20.7682 35.1245 19.8052 36.2845ZM80.8542 36.9255C79.5562 38.0075 78.1432 38.8925 77.7152 38.8925C77.2872 38.8925 75.8742 38.0075 74.5762 36.9255L72.2152 34.9595H77.7152H83.2152L80.8542 36.9255ZM6.18718 46.7555C3.48218 50.8425 3.33418 55.2965 5.97718 53.0785C8.50918 50.9525 11.1102 44.8875 9.97618 43.7535C9.19718 42.9745 8.13018 43.8195 6.18718 46.7555ZM14.4032 43.5385C14.0242 43.9165 13.7152 46.1755 13.7152 48.5595C13.7152 52.2645 14.0132 52.8925 15.7702 52.8925C17.5932 52.8925 17.7902 52.3665 17.5202 48.2205C17.2342 43.8415 15.9812 41.9595 14.4032 43.5385ZM21.1542 44.1915C20.3212 46.3615 25.7182 54.2895 27.0922 52.9155C27.8372 52.1705 27.5922 50.8195 26.2672 48.3595C23.7462 43.6775 21.9222 42.1905 21.1542 44.1915ZM69.5792 44.6185C68.7602 45.5945 67.3472 47.5885 66.4402 49.0505C65.0412 51.3025 65.0012 51.8855 66.1752 52.8595C67.2902 53.7845 68.0942 53.1025 70.2722 49.3855C71.9992 46.4385 72.6352 44.4125 72.0252 43.8025C71.4152 43.1925 70.5272 43.4895 69.5792 44.6185ZM76.3822 43.5595C75.5192 44.4215 75.5122 52.3565 76.3732 53.2175C77.5942 54.4385 79.7152 51.6685 79.7152 48.8515C79.7152 44.1075 78.2152 41.7255 76.3822 43.5595ZM83.1562 44.1865C82.8352 45.0225 83.7682 47.5995 85.2292 49.9145C87.2072 53.0485 88.1742 53.8335 89.0182 52.9895C89.8622 52.1455 89.6702 50.9645 88.2672 48.3595C85.7482 43.6805 83.9222 42.1905 83.1562 44.1865ZM55.7152 101.892V108.892H46.2152H36.7152V102.559C36.7152 99.0755 37.0152 95.9255 37.3822 95.5595C37.7482 95.1925 42.0232 94.8925 46.8822 94.8925H55.7152V101.892ZM63.9672 114.392C63.8162 114.998 56.8212 115.5 46.2172 115.665C30.9762 115.903 28.7152 115.738 28.7152 114.392C28.7152 113.045 31.0012 112.881 46.4652 113.119C57.6632 113.291 64.1232 113.761 63.9672 114.392Z" fill="black"/>
</svg>
