<svg width="129" height="129" viewBox="0 0 129 129" fill="none" xmlns="http://www.w3.org/2000/svg">
<path fill-rule="evenodd" clip-rule="evenodd" d="M1.2 1.2C0.295 2.105 0 16.448 0 59.618C0 91.088 0.273 117.548 0.607 118.418C1.142 119.812 4.769 120 31.088 120H60.962L61.514 117.75C61.817 116.513 61.938 105.862 61.783 94.083C61.563 77.46 61.205 72.567 60.184 72.227C59.45 71.983 58.616 72.753 58.298 73.969C57.843 75.71 57.231 76.024 55.26 75.529C51.159 74.5 47.99 71.901 45.942 67.887C44.874 65.793 44 63.612 44 63.04C44 62.42 46.8 62 50.93 62C57.356 62 57.884 62.164 58.18 64.25C58.356 65.487 59.175 66.5 60 66.5C60.825 66.5 61.644 65.487 61.82 64.25L62.139 62H89.488C104.53 62 117.548 61.727 118.418 61.393C119.812 60.858 120 57.238 120 31C120 4.762 119.812 1.142 118.418 0.607C117.548 0.273 91.088 0 59.618 0C16.448 0 2.105 0.295 1.2 1.2ZM17.485 6.25C17.128 7.488 16.057 9.597 15.106 10.938C13.034 13.86 9.335 16.594 6.25 17.485C4.068 18.115 4 17.922 4 11.067V4H11.067C17.922 4 18.115 4.068 17.485 6.25ZM29 5.322C29 9.433 25.315 16.589 20.952 20.952C17.942 23.963 14.363 26.37 11.392 27.382C4.436 29.752 3.829 29.585 4.19 25.401C4.464 22.217 4.947 21.648 8.375 20.475C10.507 19.746 13.739 17.707 15.558 15.943C18.551 13.043 19.651 11.116 21.375 5.75C22.067 3.598 29 3.208 29 5.322ZM41.542 8.426C43.26 13.448 48.552 18.74 53.574 20.458C57.057 21.65 57.535 22.208 57.81 25.401C58.172 29.599 57.576 29.756 50.463 27.333C43.983 25.125 36.875 18.017 34.667 11.537C32.244 4.424 32.401 3.828 36.599 4.19C39.792 4.465 40.35 4.943 41.542 8.426ZM58 11.067C58 17.922 57.932 18.115 55.75 17.485C52.329 16.497 48.746 13.678 46.25 10.01C42.593 4.636 43.095 4 51 4H58V11.067ZM75.557 6.631C74.6 10.443 72.01 13.575 67.864 15.932C62.34 19.073 62 18.787 62 11V4H69.108H76.217L75.557 6.631ZM86.978 6.25C86.944 9.707 83.24 17.135 79.745 20.752C77.315 23.268 76.873 24.273 77.795 25.195C79.34 26.74 84.331 22.158 87.216 16.547L89.248 12.594L91.173 16.345C93.557 20.993 99.986 27.337 103.992 28.997C105.647 29.682 107 30.526 107 30.873C107 31.22 104.955 32.588 102.455 33.914C97.903 36.33 93.612 40.927 90.761 46.445L89.24 49.39L87.192 45.377C85.01 41.099 78.46 34.622 74.484 32.811C72.905 32.091 72.148 30.986 72.287 29.606C72.516 27.346 72.021 27.261 65.75 28.489L62 29.223V25.58C62 22.976 62.499 21.789 63.75 21.416C71.736 19.038 76.663 14.6 78.92 7.75C80.027 4.388 80.509 4 83.578 4C86.467 4 86.997 4.351 86.978 6.25ZM99.451 7.588C100.347 12.369 107.157 19.139 112.75 20.81C116.686 21.987 117 22.336 117 25.54C117 28.464 116.652 28.998 114.75 28.99C111.26 28.975 102.809 24.655 99.19 21.037C95.512 17.359 92.586 12.083 91.543 7.25C90.844 4.011 90.855 4 94.809 4C98.571 4 98.812 4.187 99.451 7.588ZM117 11C117 18.667 116.736 18.918 111.345 16.359C107.701 14.63 103.696 10.028 102.549 6.25C101.882 4.055 102.049 4 109.433 4H117V11ZM33.712 17.843C36.706 22.659 40.976 26.55 46.301 29.312L49.088 30.758L44.681 33.341C39.845 36.175 34.923 41.314 32.434 46.127L30.831 49.228L29.348 46.37C26.547 40.971 22.678 36.717 17.823 33.699L12.959 30.676L16.23 29.1C20.513 27.037 27.287 20.231 29.073 16.198C29.851 14.439 30.536 13 30.595 13C30.653 13 32.056 15.179 33.712 17.843ZM25.986 26.514L21.555 31.029L26.278 35.751L31 40.474L35.722 35.751L40.445 31.029L36.014 26.514C33.577 24.032 31.321 22 31 22C30.679 22 28.423 24.032 25.986 26.514ZM83.986 26.514L79.555 31.029L84.278 35.751L89 40.474L93.722 35.751L98.445 31.029L94.014 26.514C91.577 24.032 89.321 22 89 22C88.679 22 86.423 24.032 83.986 26.514ZM33.532 29.035C35.326 31.018 35.318 31.127 33.187 33.258L31 35.444L28.813 33.258C26.682 31.127 26.674 31.018 28.468 29.035C29.481 27.916 30.62 27 31 27C31.38 27 32.519 27.916 33.532 29.035ZM91.532 29.035C93.326 31.018 93.318 31.127 91.187 33.258L89 35.444L86.813 33.258C84.682 31.127 84.674 31.018 86.468 29.035C87.481 27.916 88.62 27 89 27C89.38 27 90.519 27.916 91.532 29.035ZM11.537 34.667C14.602 35.712 18.155 38.06 21.048 40.952C23.94 43.845 26.288 47.398 27.333 50.463C29.756 57.576 29.599 58.172 25.401 57.81C22.208 57.535 21.65 57.057 20.458 53.574C18.74 48.552 13.448 43.26 8.426 41.542C4.943 40.35 4.465 39.792 4.19 36.599C3.828 32.401 4.424 32.244 11.537 34.667ZM57.81 36.599C57.535 39.792 57.057 40.35 53.574 41.542C48.552 43.26 43.26 48.552 41.542 53.574C40.338 57.091 39.811 57.533 36.475 57.818L32.752 58.136L33.433 54.318C34.88 46.209 42.559 37.344 50.627 34.468C57.115 32.155 58.167 32.467 57.81 36.599ZM71 35.079C73.475 36.198 77.018 38.55 78.872 40.307C82.564 43.802 86.975 52.194 86.99 55.75C86.998 57.652 86.464 58 83.539 58C80.345 58 79.993 57.689 78.998 53.993C77.632 48.921 72.483 43.732 66.58 41.477C62.394 39.879 62 39.439 62 36.364C62 33.536 62.358 33.003 64.25 33.022C65.487 33.034 68.525 33.96 71 35.079ZM117 36.461C117 39.689 116.713 40 112.75 41.059C107.304 42.515 100.373 49.496 99.441 54.463C98.814 57.807 98.56 58 94.809 58C90.855 58 90.844 57.988 91.541 54.75C93.933 43.644 104.892 33.409 114.75 33.076C116.665 33.011 117 33.516 117 36.461ZM10.01 46.25C13.678 48.746 16.497 52.329 17.485 55.75C18.115 57.932 17.922 58 11.067 58H4V51C4 43.095 4.636 42.593 10.01 46.25ZM58 51V58H51C43.082 58 42.598 57.377 46.274 51.922C48.679 48.352 54.379 44 56.648 44C57.655 44 58 45.785 58 51ZM67.887 45.942C71.943 48.011 74.5 51.161 75.563 55.396L76.217 58H69.108H62V51C62 46.821 62.419 44 63.04 44C63.612 44 65.793 44.874 67.887 45.942ZM117 51V58H109.433C102.049 58 101.882 57.945 102.549 55.75C103.689 51.996 108.074 46.875 111.379 45.437C116.729 43.108 117 43.377 117 51ZM18 63.114C18 65.082 13.938 71.446 11.563 73.198C10.297 74.132 8.077 75.193 6.631 75.557L4 76.217V69.108V62H11C15.477 62 18 62.401 18 63.114ZM28.526 65.715C27.628 70.498 25.75 74.076 21.739 78.645C18.346 82.509 10.059 86.974 6.25 86.99C4.353 86.998 4 86.463 4 83.578C4 80.509 4.388 80.027 7.75 78.92C14.6 76.663 19.038 71.736 21.416 63.75C21.789 62.499 22.976 62 25.58 62H29.223L28.526 65.715ZM41.477 66.58C43.732 72.483 48.921 77.632 53.993 78.998C57.689 79.993 58 80.345 58 83.539C58 86.464 57.652 86.998 55.75 86.99C52.194 86.975 43.802 82.564 40.307 78.872C36.751 75.118 33.056 67.7 33.022 64.25C33.003 62.358 33.536 62 36.364 62C39.439 62 39.879 62.394 41.477 66.58ZM67.2 67.2C65.487 68.913 65.487 125.087 67.2 126.8C68.913 128.513 125.087 128.513 126.8 126.8C128.513 125.087 128.513 68.913 126.8 67.2C125.087 65.487 68.913 65.487 67.2 67.2ZM83.485 72.25C82.594 75.335 79.86 79.034 76.938 81.106C75.597 82.057 73.487 83.128 72.25 83.485C70.068 84.115 70 83.922 70 77.067V70H77.067C83.922 70 84.115 70.068 83.485 72.25ZM95 71.84C95 75.149 88.904 85.972 85.637 88.464C81.828 91.369 74.199 94.947 71.75 94.978C70.371 94.995 70 94.151 70 91C70 87.624 70.322 87 72.066 87C77.975 87 87 77.965 87 72.05C87 70.325 87.634 70 91 70C94.218 70 95 70.36 95 71.84ZM107.377 74.316C109.42 79.667 114.518 84.728 119.625 86.475C123.053 87.648 123.536 88.217 123.81 91.401C124.169 95.558 123.543 95.745 116.872 93.472C108.367 90.574 101.017 82.248 99.463 73.75C98.778 70.004 98.782 70 102.253 70C105.429 70 105.87 70.372 107.377 74.316ZM124 77.067C124 83.922 123.932 84.115 121.75 83.485C118.329 82.497 114.746 79.678 112.25 76.01C108.593 70.636 109.095 70 117 70H124V77.067ZM32.794 74.446C34.621 78.456 41.082 85.001 45.377 87.192L49.39 89.24L46.445 90.761C40.927 93.612 36.33 97.903 33.914 102.455C32.588 104.955 31.22 107 30.873 107C30.526 107 29.682 105.647 28.997 103.992C27.348 100.013 21.003 93.562 16.427 91.215L12.758 89.332L17.242 86.704C21.995 83.919 27.44 78.323 29.238 74.377C30.61 71.366 31.397 71.381 32.794 74.446ZM99.712 83.843C102.706 88.659 106.976 92.55 112.301 95.312L115.088 96.758L110.681 99.341C105.845 102.175 100.923 107.314 98.434 112.127L96.831 115.228L95.348 112.37C92.548 106.973 88.679 102.718 83.831 99.704L78.975 96.685L84.002 93.814C88.792 91.078 94.237 84.98 95.532 80.899C95.864 79.854 96.262 79 96.418 79C96.574 79 98.056 81.179 99.712 83.843ZM26.208 84.288C23.894 86.646 22 89.03 22 89.585C22 91.193 29.422 98 31.176 98C32.689 98 40 90.78 40 89.285C40 88.43 31.829 80 31 80C30.679 80 28.523 81.93 26.208 84.288ZM33.532 87.035C35.326 89.018 35.318 89.127 33.187 91.258L31 93.444L28.813 91.258C26.682 89.127 26.674 89.018 28.468 87.035C29.481 85.916 30.62 85 31 85C31.38 85 32.519 85.916 33.532 87.035ZM91.986 92.514L87.555 97.029L92.278 101.751L97 106.474L101.722 101.751L106.445 97.029L102.014 92.514C99.577 90.032 97.321 88 97 88C96.679 88 94.423 90.032 91.986 92.514ZM14.134 94.083C16.133 95.095 19.239 97.393 21.037 99.19C24.655 102.809 28.975 111.26 28.99 114.75C28.998 116.652 28.464 117 25.54 117C22.336 117 21.987 116.686 20.81 112.75C19.139 107.157 12.369 100.347 7.588 99.451C4.187 98.812 4 98.571 4 94.809C4 90.855 4.011 90.844 7.25 91.543C9.038 91.928 12.136 93.072 14.134 94.083ZM58 94.889C58 98.549 57.792 98.816 54.463 99.441C49.496 100.373 42.515 107.304 41.059 112.75C40 116.713 39.689 117 36.461 117C32.559 117 32.156 115.75 34.17 109.899C36.959 101.799 43.369 95.415 51.698 92.444C57.502 90.374 58 90.567 58 94.889ZM99.532 95.035C101.326 97.018 101.318 97.127 99.187 99.258L97 101.444L94.813 99.258C92.682 97.127 92.674 97.018 94.468 95.035C95.481 93.916 96.62 93 97 93C97.38 93 98.519 93.916 99.532 95.035ZM81.676 102.573C86.994 105.661 91.522 111.149 93.472 116.872C95.745 123.543 95.558 124.169 91.401 123.81C88.217 123.536 87.648 123.053 86.475 119.625C84.728 114.518 79.667 109.42 74.316 107.377C70.372 105.87 70 105.429 70 102.253C70 98.782 70.004 98.778 73.75 99.463C75.813 99.84 79.379 101.24 81.676 102.573ZM124 102.402C124 105.305 123.547 105.962 120.91 106.882C117.207 108.172 117.535 110.628 121.355 110.212C123.992 109.925 124 109.946 124 116.962V124H117C109.177 124 108.775 123.522 112.064 118.127C113.195 116.272 113.858 114.074 113.539 113.241C112.651 110.926 109.451 114.253 107.4 119.622C105.883 123.594 105.416 124 102.364 124C99.519 124 99 123.645 99 121.696C99 118.04 103.801 109.382 107.752 105.913C111.886 102.283 118.445 99.054 121.75 99.022C123.647 99.003 124 99.534 124 102.402ZM11.609 105.56C14.505 107.727 18 113.383 18 115.901C18 116.595 15.42 117 11 117H4V109.433C4 102.049 4.055 101.882 6.25 102.549C7.488 102.925 9.899 104.28 11.609 105.56ZM58 109.5V117H51C46.855 117 44 116.579 44 115.968C44 113.938 46.758 108.47 48.614 106.819C50.647 105.012 56.022 102.016 57.25 102.006C57.663 102.003 58 105.375 58 109.5ZM76.01 112.25C79.678 114.746 82.497 118.329 83.485 121.75C84.115 123.932 83.922 124 77.067 124H70V117C70 109.095 70.636 108.593 76.01 112.25Z" fill="red"/>
</svg>
